<mxfile host="app.diagrams.net" modified="2023-02-26T20:21:01.588Z" agent="5.0 (Windows NT 10.0; Win64; x64) AppleWebKit/537.36 (KHTML, like Gecko) Chrome/110.0.0.0 Safari/537.36" etag="-ACn9Ucq3OwUXMCPTcrF" version="20.8.23" type="github">
  <diagram name="Page-1" id="z4X7nBzqHsGWjO5fPf2l">
    <mxGraphModel dx="1290" dy="541" grid="1" gridSize="10" guides="1" tooltips="1" connect="1" arrows="1" fold="1" page="1" pageScale="1" pageWidth="827" pageHeight="1169" math="0" shadow="0">
      <root>
        <mxCell id="0" />
        <mxCell id="1" parent="0" />
        <mxCell id="TDqP3z-H94sPRknVNPj9-5" value="" style="rounded=1;whiteSpace=wrap;html=1;" vertex="1" parent="1">
          <mxGeometry x="340" y="40" width="430" height="430" as="geometry" />
        </mxCell>
        <mxCell id="TDqP3z-H94sPRknVNPj9-15" style="edgeStyle=orthogonalEdgeStyle;rounded=0;orthogonalLoop=1;jettySize=auto;html=1;entryX=0.683;entryY=0.973;entryDx=0;entryDy=0;entryPerimeter=0;" edge="1" parent="1" source="TDqP3z-H94sPRknVNPj9-1" target="TDqP3z-H94sPRknVNPj9-2">
          <mxGeometry relative="1" as="geometry">
            <Array as="points">
              <mxPoint x="228" y="270" />
              <mxPoint x="228" y="270" />
            </Array>
          </mxGeometry>
        </mxCell>
        <mxCell id="TDqP3z-H94sPRknVNPj9-16" style="edgeStyle=orthogonalEdgeStyle;rounded=0;orthogonalLoop=1;jettySize=auto;html=1;entryX=-0.007;entryY=0.673;entryDx=0;entryDy=0;entryPerimeter=0;" edge="1" parent="1">
          <mxGeometry relative="1" as="geometry">
            <mxPoint x="243" y="314.4" as="sourcePoint" />
            <mxPoint x="336.99" y="314.3900000000001" as="targetPoint" />
            <Array as="points">
              <mxPoint x="280" y="315" />
            </Array>
          </mxGeometry>
        </mxCell>
        <mxCell id="TDqP3z-H94sPRknVNPj9-1" value="" style="shape=mxgraph.cisco.computers_and_peripherals.macintosh;html=1;pointerEvents=1;dashed=0;fillColor=#036897;strokeColor=#ffffff;strokeWidth=2;verticalLabelPosition=bottom;verticalAlign=top;align=center;outlineConnect=0;" vertex="1" parent="1">
          <mxGeometry x="160" y="300" width="83" height="60" as="geometry" />
        </mxCell>
        <mxCell id="TDqP3z-H94sPRknVNPj9-14" style="edgeStyle=orthogonalEdgeStyle;rounded=0;orthogonalLoop=1;jettySize=auto;html=1;entryX=0.631;entryY=0.063;entryDx=0;entryDy=0;entryPerimeter=0;" edge="1" parent="1">
          <mxGeometry relative="1" as="geometry">
            <mxPoint x="191" y="146" as="sourcePoint" />
            <mxPoint x="190.37300000000005" y="299.78" as="targetPoint" />
            <Array as="points">
              <mxPoint x="190" y="146" />
            </Array>
          </mxGeometry>
        </mxCell>
        <mxCell id="TDqP3z-H94sPRknVNPj9-2" value="" style="aspect=fixed;html=1;points=[];align=center;image;fontSize=12;image=img/lib/azure2/networking/DNS_Zones.svg;" vertex="1" parent="1">
          <mxGeometry x="173" y="70" width="80" height="80" as="geometry" />
        </mxCell>
        <mxCell id="TDqP3z-H94sPRknVNPj9-3" value="" style="outlineConnect=0;dashed=0;verticalLabelPosition=bottom;verticalAlign=top;align=center;html=1;shape=mxgraph.aws3.mysql_db_instance;fillColor=#2E73B8;gradientColor=none;" vertex="1" parent="1">
          <mxGeometry x="566.37" y="360" width="70" height="70" as="geometry" />
        </mxCell>
        <mxCell id="TDqP3z-H94sPRknVNPj9-4" value="" style="aspect=fixed;perimeter=ellipsePerimeter;html=1;align=center;shadow=0;dashed=0;fontColor=#4277BB;labelBackgroundColor=#ffffff;fontSize=12;spacingTop=3;image;image=img/lib/ibm/applications/app_server.svg;" vertex="1" parent="1">
          <mxGeometry x="566.37" y="212.5" width="60" height="60" as="geometry" />
        </mxCell>
        <mxCell id="TDqP3z-H94sPRknVNPj9-6" value="" style="shape=image;verticalLabelPosition=bottom;labelBackgroundColor=default;verticalAlign=top;aspect=fixed;imageAspect=0;image=data:image/jpeg,/9j/2wCEAAMCAgMCAgMDAwMEAwMEBQgFBQQEBQoHBwYIDAoMDAsKCwsNDhIQDQ4RDgsLEBYQERMUFRUVDA8XGBYUGBIUFRQBAwQEBQQFCQUFCRQNCw0UFBQUFBQUFBQUFBQUFBQUFBQUFBQUFBQUFBQUFBQUFBQUFBQUFBQUFBQUFBQUFBQUFP/AABEIAeEEsAMBIgACEQEDEQH/xAGiAAABBQEBAQEBAQAAAAAAAAAAAQIDBAUGBwgJCgsQAAIBAwMCBAMFBQQEAAABfQECAwAEEQUSITFBBhNRYQcicRQygZGhCCNCscEVUtHwJDNicoIJChYXGBkaJSYnKCkqNDU2Nzg5OkNERUZHSElKU1RVVldYWVpjZGVmZ2hpanN0dXZ3eHl6g4SFhoeIiYqSk5SVlpeYmZqio6Slpqeoqaqys7S1tre4ubrCw8TFxsfIycrS09TV1tfY2drh4uPk5ebn6Onq8fLz9PX29/j5+gEAAwEBAQEBAQEBAQAAAAAAAAECAwQFBgcICQoLEQACAQIEBAMEBwUEBAABAncAAQIDEQQFITEGEkFRB2FxEyIygQgUQpGhscEJIzNS8BVictEKFiQ04SXxFxgZGiYnKCkqNTY3ODk6Q0RFRkdISUpTVFVWV1hZWmNkZWZnaGlqc3R1dnd4eXqCg4SFhoeIiYqSk5SVlpeYmZqio6Slpqeoqaqys7S1tre4ubrCw8TFxsfIycrS09TV1tfY2dri4+Tl5ufo6ery8/T19vf4+fr/2gAMAwEAAhEDEQA/AP1TooooAKKKKACiiigAooooAKKKKACiiigAooooAKKKKACiiigAooooAKKKKACiiigAooooAKKKKACiiigAooooAKKKKACiiigAooooAKKKKACiiigAooooAKKKKACiiigAooooAKKKKACiiigAooooAKKKKACiiigAooooAKKKKACiiigAooooAKKKKACiiigAooooAKKKKACiiigAooooAKKKKACiiigAooooAKKKKACiiigAooooAKKKKACiiigAooooAKKKKACiiigAooooAKKKKACiiigAooooAKKKKACiiigAooooAKKKKACiiigAooooAKKKKACiiigAooooAKKKKACiiigAooooAKKKKACiiigAooooAKKKKACiiigAooooAKKKKACiiigAooooAKKKKACiiigAooooAKKKKACiiigAooooAKKKKACiiigAooooAKKKKACiiigAooooAKKKKACiiigAooooAKKKKACiiigAooooAKKKKACiiigAooooAKKKKACiiigAooooAKKKKACiiigAooooAKKKKACiiigAooooAKKKKACiiigAooooAKKKKACiiigAooooAKKKKACiiigAooooAKKKKACiiigAooooAKKKKACiiigAooooAKKKKACiiigAooooAKKKKACiiigAooooAKKKKACiiigAooooAKKKKACiiigAooooAKKKKACiiigAooooAKKKKACiiigAooooAKKKKACiiigAooooAKKKKACiiigAooooAKKKKACiiigAooooAKKKKACiiigAooooAKKKKACiiigAooooAKKKKACiiigAooooAKKKKACiiigAooooAKKKKACiiigAoopjSBSQeMUAB5PSg8VR1XWLPRtOuL+8nW3tIELySPwFAGSf518g/GT9va1tAbD4dxpe3KsVl1K8jzEowRhFOCTnBycD654561enQV5v5dTzMfmOFy2HtMTOy7dX6I+y2bA6ZoVw3cZ9K/K1P2p/inHqf28eLrr7QSchoYjFg9hHs2gfhn3r6L+Cn7d9vql1a6P48tls7yUiJNUtVxFI2eN6fwk88jI+lcVPMKM3yvT1PnsFxXl+Nq+yu4N7XSs/mm7fM+yhS1Vsr+31C3Se2lSeJxlXjYEEVOJATivVPs1qrofRRRQMKKKKACiiigAooooAKKKKACiiigAooooAKKKKACiiigAooooAKKKKACiiigAooooAKKKKACiiigAooooAKKKKACiiigAooooAKKKKACiiigAooooAKKKKACiiigAooooAKKKKACiiigAooooAKKKKACiiigAooooAKKKKACiiigAooooAKKKKACiiigAooooAKKKKACiiigAooooAKKKKACiiigAooooAKKKKACiiigAooooAKKKKACiiigAooooAKKKKACiiigAooooAKKKKACiiigAooooAKKKKACiiigAooooAKKKKACiiigAooooAKKKKACiiigAooooAKKKKACiiigAooooAKKKKACiiigAooooAbjuaQlR1607GK5X4gfEHRvhx4eudX1q9jtLeFSQrsA0h7KoPUk8Ck5Jatmc5xpxc5uyW7Z0+4dzXiPxQ/az+H/w7h1C3TW49U123BVNMs42dmfIBBfGwY5zlh0I68V8s/Fn9t7xT48tZtO8NWx8NaZISHnDbrp17YOMJkdcAn3r5umxLcSTv+8nlYs7uSWYk5JJ9SeSa8KtmN9KKv5tfkv8AP8T81zbjGnSfs8vSk9btp2Xorp/N/cemfF39onxh8YbqeLVb97PRfM3Q6XbfJHgZwXxyxweQSRXmBK9kC+wof73bd3I5pM85714rcpPmk22+r/L0PyjFYutjKjq15uTfdvTyQDHfpSAnpwR2yKKKVk9ziTsepfCH9onxb8HdQiGnX0l5ozOPP0y7YyJtzyUyflb0wQD3r71+G/7VPw++JF7b2FnrIs9Wki8w2N5DJEwxjIDkbGIJHAYnHPQGvy56HB6elSQTz2lzHPDI0M0Z3JJGxVk+hHNduHxVTDrlTuuz/TsfZZTxNjMttTk1OHZ3bXo7q3zuj9pBIpXg578U4EFq/O74Lftr+JPBNxZ6d4sf+3tBUeWLgqFuoQSMEt/EAM5B56HNfdfgj4gaH8QtHTUtC1CG+t26+U4YqfQgHg+1fQ0MVTrr3Xr26n7Jlmc4TNYc1CWvVPRo6miiius9wKKKKACiiigAooooAKKKKACiiigAooooAKKKKACiiigAooooAKKKKACiiigAooooAKKKKACiiigAooooAKKKKACiiigAooooAKKKKACiiigAooooAKKKKACiiigAooooAKKKKACiiigAooooAKKKKACiiigAooooAKKKKACiiigAooooAKKKKACiiigAooooAKKKKACiiigAooooAKKKKACiiigAooooAKKKKACiiigAooooAKKKKACiiigAooooAKKKKACiiigAooooAKKKKACiiigAooooAKKKKACiiigAooooAKKKKACiiigAooooAKKKKACiiigAooooAKKKKACiiigAooooAKKKhuZkggeR3WNVGS7EAKPUk9KAHE4B5qpqGo2+l2ktzdTJBBENzyOcBR9a8P8Ai5+2D4L+G8c9pZXQ8Q61t/d2tgweNT/00kzhR19T7V8S/Ff9pLxt8YYns9X1BLPRy2Rp1khSNhnI3nJL4IGMnGQDivOr42nS0Tu+3+Z8nmnEmCy5OF+edtEtdfNrb8z6J+Nv7dNi1lqeheBIZpb3/U/2zIdscRBG4oB8xOMgHjBOecYPxx4g8X634vu/tOuazfazOucPezvKIwf7oYnA+lZQAUY6fSjrwK+eq1qld3m/l0/rz3PxnMs6xmaTbrStHolokv1+Y3uf50UUVifPBRRRQAUUUUAFFFFACt/nFbPhzxbrfhC7+1aDq99o84wzvZXDReYAc4cKRuHsaxgcHijp1FLW6d/69TenUnSkpwbTWzWjPt/4N/t4QX1zDpfj22jsC6hIdTtctG75A2sp5BPXOT0NfYVjewahax3FvIssMihkkU5DD2P5V+LpVWHTPOcH1r1v4QftL+Mvg/LHFZ3rarpB4bS75yyKB/zzbqp56dPavWw+YSpvlrarv1Xqfp2T8Xyp2o5hdr+ZLVeq8u6P1QU4UYpe/THvXgnwe/a98GfFARWN1MfD2unC/Y75gqysc8Rvkhu3Bweele7QvuXcOQeQa96FWFVc0HdH6phsVQxdNVKE1Jd1qT0UUVqdQUUUUAFFFFABRRRQAUUUUAFFFFABRRRQAUUUUAFFFFABRRRQAUUUUAFFFFABRRRQAUUUUAFFFFABRRRQAUUUUAFFFFABRRRQAUUUUAFFFFABRRRQAUUUUAFFFFABRRRQAUUUUAFFFFABRRRQAUUUUAFFFFABRRRQAUUUUAFFFFABRRRQAUUUUAFFFFABRRRQAUUUUAFFFFABRRRQAUUUUAFFFFABRRRQAUUUUAFFFFABRRRQAUUUUAFFFFABRRRQAUUUUAFFFFABRRRQAUUUUAFFFFABRRRQAUUUUAFFFFABRRRQAUUUUAFFFFABRRRQAUUUUAFFFFABRRTWbHtQABeR6Cmu23npVDWdZs9A0q71G/uEtbK0iaaaZ+FRFGST9ACa+PPjx+3JZXOk3GkfD2SeW7lXadZdDGkfPJQEZJ6jOB1zXNWxFOgrzevRdX6Hl4/MsNltP2mIkl2XV+iPqH4l/FDRPhP4VuNe12fybOHaoVBud2ZgoAXjPJ9a+Gvjd+2jrfxP0bUNA0WwTRdAvMI08rFrqRAc44OFBwOBk4714Lr/AIv17xQ8f9t63qOsOp3D7fdyTY+gYnH4YrHyCCMc9ea8DEY6dbSGke3V/M/IM34sxGNTpYVOnBqz2bd79emnYZHEIYgg6DOSTknPueaeGIA9ulJ1PegcGvO0Ssj4Jtt3bEooopkBRRRQAUUUUAFFFFABRRRQAUUUUAFKCR3pKKAHNkjIYqcg7lOCCOmCORX018FP22/EPgWI6d4qgk8R6UoRYZIiqT26jII6AOOnUgjHU54+ZevPSgMeh/lV05zpS5qbs/z9V1PWwGZYrLantMNO3dbp+q2Z+vfw3+KGgfFTw/DrHh69F3bOoJUjayE54YHoeD+VdZGwbcetfjh4Z8Y694One48P61faLMxBdrKdog+M43hSAw5PByOTX2B+z7+25brZQ6J8RbiSO73BY9Z2gxuCT/rMcr25PHXJr3aGYQk1GqrPv0/4B+wZVxbhca1SxC5Jvvs/n0PtPOaDWbo2vWPiCwjvtNvIb2zkGUmgcOrfQjitBWzxXsbn3iakrofRRRQMKKKKACiiigAooooAKKKKACiiigAooooAKKKKACiiigAooooAKKKKACiiigAooooAKKKKACiiigAooooAKKKKACiiigAooooAKKKKACiiigAooooAKKKKACiiigAooooAKKKKACiiigAooooAKKKKACiiigAooooAKKKKACiiigAooooAKKKKACiiigAooooAKKKKACiiigAooooAKKKKACiiigAooooAKKKKACiiigAooooAKKKKACiiigAooooAKKKKACiiigAooooAKKKKACiiigAooooAKKKKACiiigAooooAKKKKACiiigBvselB46U0uMn1Fcx4++IGj/Drw1f63rFwIbW0haYgH53ABOFHUk9BSbSV3siJzjTi5zdkt2zpJJliQs+Ao5Jz2rwn4vftf+Cfhtb3NrZXI8Q66Mxx2Vk4ZUft5jZwqg9cZOOgJr5b+Of7Zet/FDTJNF0K0k8PaPLkSyLKftEynIxkYCgjqOa+dOh44Hp/jXhV8wbfLQtbv/kvLuz8yzfjGNJulgLSf8z2T8l19dj1f4r/ALS3jf4sSXEGoaj9g0mQFDplgSsLKeoc4y2RwcnB9MV5TvPGecdqQnIHPI9etIOTx1rxZSc25T1b76/8N8j8qxWLr42o6uIm5Pu/07fICc47nHU9aSiig4QooooAKKKKACiiigAooooAKKKKACiiigAooooAKKKKACiiigBQcZ/XFBw6lSAVIwQe496Sl3UPVWY02j1f4NftH+LPgqJbXS5I7/SJmVn0++ZmVMZ/1ZzlM5OeoOB6V9ufBj9rrwf8WJHspDJ4e1hFDG01F1USE5z5bZw4GPY8jivzMwO+T9KUufQEg5B9D6j0rqoYqrQ0jquz/Tqj7DK+JsbltqbfPBdH09Huj9pY5FkAKYdeoIORUmQfpX5x/s9/tgan8LIYtF8SrNrPh4YCz7t1xbjnOMn5lHHHGAO/Svu74cfE7w98VNAGseHb4XloW2kkFWQ+hB6V9Fh8VCutNH1XVH7JledYXNYJ0naXVdV/n8jsaKbvFOrsPeCiiigAooooAKKKKACiiigAooooAKKKKACiiigAooooAKKKKACiiigAooooAKKKKACiiigAooooAKKKKACiiigAooooAKKKKACiiigAooooAKKKKACiiigAooooAKKKKACiiigAooooAKKKKACiiigAooooAKKKKACiiigAooooAKKKKACiiigAooooAKKKKACiiigAooooAKKKKACiiigAooooAKKKKACiiigAooooAKKKKACiiigAooooAKKKKACiiigAooooAKKKKACiiigAooooAKKKKACiiigAooooAKTpRkVHLIscblmChRkknoPegBQ2eTVLWNe07w9p899qd5DZWcKl5Jp3CqoHcmvFPi/+1x4M+FRmsIpX8Qa0Izi0sGVljbHAkcnCjOM4yQOcGvh34w/tC+LPjWYrfWp4bXS4ZPMisbMFUB5wWJOW447D2rza+Op0bqOsuy/VnyWa8SYPLU4J89TstdfN9PTc+gvjz+3HHNBd6L8PJnMjgxtrJjwEByCYs85HYkYzzXyN4g8Ya/4vuBNret6hrMoyFe/unlx34BJAHsABWQTkY4A7AfypMegxXz1WtUryvN/LovkfjGY51jMzm5VptLsm0l8hDg9AR65PeiiisvQ8AKKKKACiiigAooooAKKKKACiiigAooooAKKKKACiiigAooooAKKKKACiiigAooooAKKKKAFzj7uPxrb8NeNNe8HyM+h61qGivIQznT7l4RIRnG4KQGxk8EHqfWsTr7UucdDR1utzanUnSkp05NNdU7P70fav7PP7a8TW8uk/EvUNlzvH2bU1hOxlwOH2jg5yc4xg9a+xNF1/TfEenQ3+mXsF/ZzDdHNbuHVh7EV+M/UENg55wT3r1T4J/tF+J/gg7waY0d9o0shkl066PykkAEow5U8DjBHtXqYbHzptQq6rv1/4P5+p+mZNxdOlahmGsbaSWr+euv5+p+qqtkdaOxrwn4M/tX+EvizaxxTzx+H9b37P7OvplDSHsY26MOw6HjkCvdI3VlBDBvcV9BTqQqx5oO6P1jD4mji6aq0JqSfVElFIGB6HNLWh0hRRRQAUUUUAFFFFABRRRQAUUUUAFFFFABRRRQAUUUUAFFFFABRRRQAUUUUAFFFFABRRRQAUUUUAFFFFABRRRQAUUUUAFFFFABRRRQAUUUUAFFFFABRRRQAUUUUAFFFFABRRRQAUUUUAFFFFABRRRQAUUUUAFFFFABRRRQAUUUUAFFFFABRRRQAUUUUAFFFFABRRRQAUUUUAFFFFABRRRQAUUUUAFFFFABRRRQAUUUUAFFFFABRRRQAUUUUAFFFFABRRRQAUUUUAFFFFABRRRQAUUUUANB4yRgU3jBGcUpOFJJxXyj+1V+1hefDXVo/C/hGSGbWvLL3lxIu5bYH7oGTjd1OMHtWFarChBzm9DgxuNo5fQeIruyX3v0PfPiP8U/Dfws0aXU/EOox2USjKRfeklPXaijkmvg747/tf+IficbjS9AM+geG5AYpELAT3KHIOSOVBBwQCeK8P8QeK9Z8VTLNrOsahrEincHv7l5SreqhiQPwxWRyen4V89iMbUr+7HRdV1+8/G834sxGOTpYZezg9+79X0+Q4ABiQu0deTkn3J70jUbqbXnnwDdwooooEFFFFAC8igY70uMt90Hnrzmp7WyuL+8S0tLaW7umICwW6GRyfYDJpN2NIwlJpRV2V+tH416Npv7O/xM1mNXtfBWpKCMg3CiIEfRiMU6//AGb/AIoaVE8tx4M1BlUZP2cLKfwCkk/hV8s/5X9zPRWV45rm9jK3ozzf8KOvtWjrXh3VfDkwj1bTLzSpCOFvbd4j/wCPAVn4DEYII74qLq9upwTpzpu000/NWG0UUUzEKKKKACiiigAooooAKKKKACiiigAooooAXA9aKkgtZbqeOCBJLieQ4WKJCzuemAACa9B0b9nf4ma/A0tp4M1EIOhuEEJP0DEE/WhJvSKb9E2dtHCYjEfwYOXom/0POunakrv/ABB8BPiJ4Wthcan4O1OODnMkKCYLjqTtJIHua4SSMxSvE6tHKhw0bghlPcEHmh3i7STXqmhV8LXw2laDj6pojopxIzxxTaDjCiiigAooooAeDl0fHKkEMMjaexBHOa+if2f/ANr7V/hZbzaX4lW98SaO8geJzNvmtxjBA3Hkd8Z4PQc186BiPu8fSgHbVQnOlLmpuz/rdHqYHMsTl1VVcPKz/B+q2P15+G/xP8OfFLRE1Pw7qCX1uTh0Bw8R67XU8g12I71+OHhfxrr/AIJnM/h/WtQ0SYtuZrK4aNXPHLqDhugHzA19vfsj/tRzfEB/+ET8XXpn8Slma0uioVbiIKDg4wDIDvJx2Ar6DDY+NVqnUVn+DP2XJuKaGYyjQrLlqP7n6eb7H1pRTE5H40+vWPugooooAKKKKACiiigAooooAKKKKACiiigAooooAKKKKACiiigAooooAKKKKACiiigAooooAKKKKACiiigAooooAKKKKACiiigAooooAKKKKACiiigAooooAKKKKACiiigAooooAKKKKACiiigAooooAKKKKACiiigAooooAKKKKACiiigAooooAKKKKACiiigAooooAKKKKACiiigAooooAKKKKACiiigAooooAKKKKACiiigAooooAKKKKACiiigAooooAKKKKACiiigAooooAa3AJr8hPi9NJP8AEzxE8kjSO1ycsxyTgAc1+vb/AHTX5A/Fv/kpXiD/AK+T/IV4eabQ9X+R+acc/wC60l5s5GiiivDPxcKKKKACiiigBQM0qr5hoHGataTpFxr+p2el2hAu76eO1hJ7SOwVT+BIpO9tDWEXOSjHdtL7z0f4Hfs+678cdTlj054bLSLKWNLy9ndgQp5YRgKQ7gZwCQASMmv0Q+EPwK8L/B3SI7LR7ISzDJe+uEUzyH3YDpVn4JfDW2+Fvw30bQIoo47mCEG6kjH+smPLsT3yfXtiu/Ax3r6fC4SNFKb1k+vbyR/QWR5FQyyipSV6jSbb6Psl0sO2j0o2ilor0j6wyNe8M6V4lsJbPVNOtr+1kUh454wwI+hr5E+LX7A0N3LNqfgTUY7W5Yl30/UDtgYE/wALqpK4GcDBB4GRX2eRx0pGUd65q2HpV176179Ty8dluFzCDhiIJ+ezXo1qfjP4h0G/8Ka5f6Pqls9nqFpIY5YpEIOQfvDOMqRyD3FZ5AwDnPvX6Y/tU/BK3+Jvw91O50nSbe48X2gjlsp9gErhXUvHu7gpvAB4yRX5r6hp11pV9c2d/avZXsDmOa3lBDxt3BH+cjmvmMRQlh58r1T2f6eqPwvPslnlFbli26b1Tt+D81YqUUHknHTtRXOfKBRRRQAUUUUAFFFFABRRRQAvbNdX8MvhxrHxW8X2Xh3Q1iF7cKzma5yIYUUZLOQCcdgMckgcVypA3V95fsAfD1NM8Gav4snhUXWryiG3lIywhjLDA9AWJPHXA9K2w9L29VQezvf0W/3n0uQZcs0x0aM/gWr9F0+ex6T+zv8As1aV8EtHke5eDVvEFywae/MIATAI2x55C8/j1r22NAgOOB1xRGMqM9ad2NfXU6caUVCCskf0Lh8PSwtNUqMUorZIYyBlwQCD6ivAv2k/2XNM+MllFqGkvBo/ia0DGKfZiOfOPllwCSBjggHGScGvoDIB9TTJApxmirSjWi4TV0ycThaOMpOjWjeL3X+R+OXjPwhqvgPxHdaJrVv9n1C2xvC5KsCMgqSASD9B0rE7fSvsr/gotoSWdz4L15LZS0oubO4mUYJP7sxgn2y+Pqa+N2UIBz83evkK1N0ajpt3s9/VXX+XqfzrnWX/ANmY6eGi7pWs+6aT/C9hlFFFZHghRRRQAUUUUAKOh5rvfgFK8Xxt8EsjFW/tKMZHoeCPxHFcEOhru/gN/wAlr8E/9hOL+dVD44+q/M9DANrF0mv5l+aP1vj6Gn0yPoafX27P6ke4UUUUhBRRRQAUUUUAFFFFABRRRQAUUUUAFFFFABRRRQAUUUUAFFFFABRRRQAUUUUAFFFFABRRRQAUUUUAFFFFABRRRQAUUUUAFFFFABRRRQAUUUUAFFFFABRRRQAUUUUAFFFFABRRRQAUUUUAFFFFABRRRQAUUUUAFFFFABRRRQAUUUUAFFFFABRRRQAUUUUAFFFFABRRRQAUUUUAFFFFABRRRQAUUUUAFFFFABRRRQAUUUUAFFFFABRRRQAUUUUAFFFFABRRRQAUUUUAFFFFADX+4a/ID4tf8lI8Q/8AXyf5Cv1/f7hr8gPi3/yUjxD/ANfP9BXh5ptD1f5H5nxz/utL1ZyVFFFeGfjAUUUUAFFFFABXY/BlQ/xf8DqwyDrll1/67Ia46uy+C/8AyWHwN/2HbL/0clVD4o+q/NHoYD/fKP8Aij+aP15TuafTE4FPr7Y/qJBRRRQMKKKKAI/LH0r5J/bU/Z8ttd0K68eaFaEa3YoDexW6j/SoQQCxA6soJORzgYORX1xnB471BcW63ETxuFZWBG1hkEY5BHeuevSVaDpy69ez7nn47BUsww8sPV2a08n0fyPxcBJTIG0E9QcjHrQRjivpb9qT9lW4+GK6n4z0OWOXw5NOGubVch7R3cAFVAwUyQDyCM5wRmvmrb1ZR8o6V8jOnOlLkmrP9O5/OeZZfWyyu6FdWe6fRruvyGUUdaKk8gKKKKACiiigAooooAcwyn4V+pv7KNtHb/ADwesahQbTeQB1JYkn8Sc1+WT/AHPwr9Uv2Wv+SA+Df+vIfzNellr/AHzfk/zR+l8D/wC9Vf8AD+qPWI/uinUyP7lPr6Y/aAprLu74p1FAHy7/AMFBLKKX4NWUjrl4tSRlJ7Ha3+Ffnq39Olfoj/wUB/5Itbf9hGP/ANBavzvbofwr5fMP94+SPwzjP/kY/wDbqGUUUV55+fhRRRQAUUUUAKOhru/gN/yWvwT/ANhOL+dcIOhru/gL/wAlq8E/9hOL+dXT+OPqvzO/Af71S/xL80frfH0NPpkfQ0+vtmf1K9wpCcUZzSM4UUhBtoz71Tv9Tt9Pt2luZkt4R1kkbAryDxD+198LfC2py6ffeIlN1GxV1ihd8HvyBjv2rCpXpUf4kkvVnNWxNHD/AMWaj6tI9qzjvTs5zXA+BvjT4P8AiHbLPoetQXasSApOxiRnscHtXdrIGX296uFSFRc0GmvJ3NKdWFaPPTkmu61JKKaCCAfWnVoahRRRQAUUUUAFFFFACA8UmcUjuI1JboOTWfqmsWek2b3V5cR21unLPK20D2oeiuxNqKu9jSHPvTSfyrwzUv20PhPpV7Jaz+JMyRsVYpA5AI98V6J4F+Kfhj4k6at94e1WK+hboAdrevQ4NcsMVQqS5ac032TRyUsZhq8uSlUTfZNP8mdlRUayggdfrT+tdR2C0UUUAFFFRTPsTPv2oAkyKMishvE2lxzNDJf28cy8MjyqGU+hpw8SaX/0ELb/AL/LUc8W3Zoz9pDuvvNXIoyKyv8AhI9L/wCgjbf9/lo/4SPS/wDoI23/AH+WjmXdBzx7r7zVyKTcfasv/hI9L/6CNt/3+Wl/4SPS/wDoI2v/AH9FHOu6Dnj3Rp7qN1Zn/CSaV/0Erb/v6KUeItLI41G2/wC/oo5490Pnj3RpY9qMe1Zv/CQ6Z/0ELb/v6v8AjTW8RaZkf8TC2/7+rRzx7oOePdGrnHalqhbalb3a7oJknTOC0bBhn0yD1q4rZ474zVrVXKTutB9FFFAwooooAYD+dLn170mQvXrXPeM/Gel+BvDeoa7q832fTrKPzZpMZ4yBwO5JI4qXJRTcnsRKSgnKTslr8joMZPPSlzz6/hXyhP8A8FEfAwZvs3h3xFOoOA5igVW+mZc/pXTfDj9t3wR8SPFun+HYNP1jSr6/YpDJfxRCIsFJwWSRiM4wOK82GaYKpNU41U3ta55EM5y6pUVKFZNt2369j6LBzS1FDJvXOMZqWvUPaCims4XGe5pjzBTg5Bz/AEzQA/PrRn0rlfEnxL8NeEkVtU1i3tdzbQN+Tn6DNT+G/H2geLSBpOpw3rY3bUYZx6461mqkW+W6uYqtTcuTmV+19TpaKi85TjrycVLWhsFFFFABRRRQAUUUUAFFFMZsetAC5yKORVdrlVznK467sAD6muW8Q/Fbwp4Xnih1LWraCSUkKobd0xnOM461EpxgryaRnOcKavNpersdhntS9Kw9B8Y6R4lh83Tb+G8UAEiJgTg57fhWv9oQ44PTNUmmrrYqMlNc0XdeRPRSbqWmUN7+lISR0NQ3N1HaQtLKyxxoMs7nAA9a8e8U/tefDDwfqJsNQ8QgXIGSsULvgZPcDHY1lUrU6KvUkl6tI5q2Jo4e3tpqN+7S/M9n3EcGl4ArgPh98bfCHxSjlfw3q8d/5WA6bSjDPPRsfpmu8R927Bxg4pwqRqJSg013WppTqwrRU6ck0+qaZLRTQ4bpTq0NQooooAKKKKACiiigAopu4c1GZ12kjJHegNiQ8nigcDBrzTx1+0R4C+G989lr2ux210ihzCiFzg9OgrM8H/tUfDbx1fpZ6Vr6PcseI5kaM9cdSMfrXI8Xh1Lk9or9rq/3XOF47Cxn7N1Y817Wur37bnsFFV4J1mGUbepAII5BB6EGpwc11ncLRRRQAUUUUAFFFFABRRRQAUUUUAFFFFABRRRQAUUUUAFFFFABRRRQA1/uGvyA+LX/ACUjxD/18n+Qr9f3+4a/ID4tf8lI8Q/9fJ/kK8PNNoer/I/M+Of91perOSooorwz8YCiiigAooooAU9a7H4L/wDJYfA3/Ydsv/RyVxx612PwX/5LD4G/7Dtl/wCjkqofEvVfmj0cv/3yj/ij+aP16XtTqavanV9sf1EtgooooAKKKKACiiigDL1zRLPxHpt1puo2sd5Y3MZjmglAKup7EGvy9+P3wG1z4MeLrrdZSf8ACLXU7DTrsHeFHLBCRyCBxg8nBxmv1UHFcZ8WPhvY/FjwLqnhnUJHhhvFXbPH96J1YMrD6FR+GR3rzsZhVXhdbrb/ACPms8yenm2Hcdpq7i/Ps/Jn5D5BbPPvmgHFdh8V/htqfwo8b6h4c1MmZrcgw3O3aJ4yMq4H5g44BBrj88fyr5hpxbUlZrdH8916NTDVZUqqs07NeglFFFByhRRRQAUUUUAOf7n4V+qP7LP/ACQLwd/15D+Zr8rn+5+Ffqj+yz/yQLwd/wBeQ/ma9LLf4z9H+aP0zgb/AHqt/h/VHrEf3KfTI/uU+vpj9nCiiigD5k/4KA/8kXtv+whH/wCgtX53t0P4V+iH/BQH/ki9t/2EI/8A0Fq/O9uh/CvmMw/j/JfqfhnGf/Ix/wC3UMooorzj8/CiiigAooooAUdDXd/Ab/ktfgn/ALCcX864QdDXd/Ab/ktfgn/sJxfzq6fxx9V+Z34D/eqX+Jfmj9b4+hp9Mj6Gn19sz+pXuNPPXiuG+K/xT0P4U+FrvWdZukiWNCYrfP7yZugVV78kDPTnnFdvIPlJ7V+cf7feuSar8bLXS3YGHTNPiManoHkyzHHqQQPwrx80xrwGFlXSu9l8+vyPBzrMHlmDliIq7ukvV/5bnlXxP+OPiz4t6pcXOuatdLZPIXg063cxwwr0HAwCcdScnJODivPiAD8o6+v9frSE5Y9eDjJPajb7mvxiviKmIm51ZNt93c/Aq+Iq4mbqVZNt66tsms55LCdZbeWW2lQ5WSByhB9cgg19ifsqftZyW0h8L/EHVy8JP+gand8lT/zzkc/Xgn6Zr412+5pzAOpDBXQ9VYZH+e/1ruwGYVsDVVSm7rZp3s12sd2XZniMtrKrSbt1Tbs12sftRaXUVxBFJE4eNwGVlOQR1BB7jHerP3hXxx+xH+0E2uWdt8O9XUC50+3ZrC7kk5uEDE7DnuoYAeoWvsROQpz0r9iweKhjaEa9PZ9Oz6r5H73gMbTzDDxxFLZ7rs+q+RPRRRXceiFFFFABSdKWmucCgCjqV7FptjPdXD+VbwxtJI5/hUDJOa/Kf44fHHXvjB4p1Ga41KU6FHcyJp1mG2RrCGIVio4LEYOTyPav0Q/ad1abSvgZ4vmgOHaxeM/Rhg/zr8oVHAwRj+76DsK+A4nxc4clCLsnq/PsvQ/MeMcdVpunhYNpNXdm1fXRPyExgZCjd3xzWlpHiDUPDt1FeaVe3On3kZDLLbSFCpHoQRn3z1rOor87hUlB80XZn5bGcovmi2ne90z9Rf2WfjJJ8Xvhtb3N5IJNasCLa+AGCzY4fHT5hzkd817ap3LmvgL/AIJ36lND468TWQceRcWUcjoOpKswBH/fRr7+VQBX7VlGJli8HCrPfVP1TP6AyLGTx2X06tTfVPzs7XH0UUV7J9ARtwM1yfxL8b2nw88Daxr95II4rK3aQbv4m/hUDuSSBj3rqZz8rAAE46E1+d37bPxsvvF/jG88FWkif8I/pMieaF5Ms+MnJHYZxj1FeVmWNjgMO6r3eiXdniZvmMMswsqr1lsl3b2PnDVPEGpa9f3Go6jdzz6jdOZbiUysPmJycAHAHbA9Kp/a7j/n4n/7+t/jSF9yntnk/nTNuD1Nfikqs5ScpN3fmz+e5VJTblJu78yT7Xcf8/E//f1v8aPtdx/z8T/9/W/xqPb7mjb7mp9pLuTd9395J9ruP+fif/v63+NH2u4/5+J/+/rf41Ht9zRt9zR7SXcLvu/vJPtNwf8Al4m/7+t/jUgvbkAD7VcfQSt/jVfb7mjb7ml7SXdlc8iwb+5/5+rn/v63+NBv7kAYuZwc9WlbH86r7fc0uMDufrT9pLu/vYc7PpX9i742f8IL46PhzVryV9N12ZI4BJl1juS21cf3c55PTgV+jMZDN0PqM1+LNlcyWlzFPBJ5c8TLJG+cFGBBBB9QQCPpX6c/ss/HdfjT4MaS7jW31rTisF3GGHznHEgHYEg/lX6Pw3mKqQeEqPVaq/Va3XyP1fhLNFUpvBVXqtY+ad7r5fke6daWmhgcYOadX3Z+kBRRRQBDKcjj0r8/P27/AIp3GteO7fwdZ30g0nT4RJeQIcLJM3Iz67RggHjJr7/vSRbSkdlP8q/H34p3k2o/EfX7i4k3ytdEFs9eAB+Qr5DiTEyo4VU47zdn6Lp8z4Xi/F1MPg1Sp6c7s35LW3zOXZsjgnPZh0xUltdTWsyTwzPBPGQ0TxsQysDkEHtjGePSoB0Hb60Ecg1+VKTTutz8YTcXdaM/Sr9i34uX/wAT/hnPFrd4b3W9Mn8iaZhhmQjKsex7j8K+iEVegNfBX/BOq6ePxd4sthnypLWF2XtkFgD+tfesa4AB9K/acmryxOChOer1V+9m0f0BkGJni8upVJu71TfezauNf7vUnHoK+Kf21f2iNV0TXYvBXhXVZdPkjTzdTubY7ZPmHyxBuo65OMHpz1r7L1q9bTdLu7tRzFG0gH0BNfj98R9Wm1vx74kv5zumuNQmY4PbeQPyAArz+IsbPCYdQptpydrp2slq7HkcV5hPB4WNKk2nN7rsunz/ACMO6vJr+V5LyeW5kYklpZCxz6kkk1Z0LXdS8O6hHeaVf3GmXaDCz2kpRgPqCPTpWdzj0+lKBtOeTX5Sqs01JNp97s/GVUnFqSbuut3f/M+//wBi/wDaJ1H4hLc+EvEt79s12zQz21www08AIzk92BYZ7n35r61ANflF+y7q8uj/AB68ITRH5pbprckjkq6MCD+OD+Ffq0pwxBNfrmQY2pi8Jerq4u1++isft/DGPqY7BfvneUXa/dWTX3bEtFFFfSn14UUUUAFFFISBQA04zXKfEP4haL8NfDdxreu3i2enwYDEjLMT0VR1JPtXQX93FZQvPNIscUalnZjgADqSfavzC/ah+PV38Z/GD20DeX4b0iZ47KIYPmv0aVj3yV47AfU14uaZjHLqHO9ZPRLu+/ojwM5zaGU4d1LXm9Iru+/oix8c/wBqvxT8TdfuYdI1W60bwwpKW1vbMYpJl4y0hByc9hnGO1eHTyvPK0ju8jk5LSMWJPuc5pCfnO75ieeKM5r8hxONr4qo6lWTbf3H4VisdiMbUdatNtvXd2XklfZGpoXifV/C14l3o2q3mmXCkZktZmQkDscEAj2NfY/7Lv7YEl/c2/hXx9ftNe3E5Sx1ORQAwIG2OQjHzZzyR6ZNfElIX2ncMhlII9iOQRXVgMzr4GopQba6pt2a66d/M7MtzbEZbVU6cm1fVNuzXXro/M/ayOTdzncCMg56j2qZ3AX6V4v+yV45vfiF8E9E1LUpRNfKXgkceqnjP4Yr0H4ka0+geB9YvYAWljgbAAzgmv2WnXjUoqutmr2+Vz98p4mNTDrELZq/ytc+FP2xf2hNV8UeN7/wloWrSQeGtPUQ3IgOz7RcZO8FhyVAwMdCc5zXzCQhbcVLn1Y5J+pNSXU73d1PNOd8sjtI57liSSfzNRZJHPNfimOxtTG1pVJt6vRXdkuiR/PeYY6rjsROrVbd27LWyV9Eizpep3miXIudPurixuFPElrK0TAexBBr6/8A2X/2w7i3vU8M/EHVC1o/y2er3GNynoElbv7Ej6npXxtT0YDO4bhjoTxn+v0q8DmNfA1VOm9Oqu7P5XNcuzPE5dVVSi3bqruzXmr/AIn7SabfwahaRXNtcR3NvKNyTRkMrjsQRwauKwOOc1+dX7JX7TQ+Gb23gzXIvM0S9u99vfiTAsi+AVOeNhPPbBJPev0Ms5EkjDqwdXAKuDkHPpX6/gMfSx9FVYPXquz7H7nleZ0s0oKtStfqr6p/5di5RTQwPQ5p1ekewFFFFABTSwxQSMGqN/fwabaT3NzKsFvEpkklcgKigZJJPTpQGxFqmr2mjWct5fXMVnbRDLzTsFRR7k1+f37SP7Xmu+KvEWoaD4N1T7D4YiYR/b7XKzXWFG8BuoXdkAjGQPQ1yP7Tv7ROofGnxFLplu/keE7OZltrdD/r2HBkc9wSCQOmCD3rw7Pbj044/KvzXOc+lUbw+FdktG1o30aXZH5Fn/EkqzeFwTaim05J2beqaXl59bEl3cS31y888jTysctJMxdyfckkn8aYgUMSchuqkdj/AJ9KYpJHNOzivhnOTd76n525Nu7bb79T7M/Yz/aV1W/1638DeKdQE9m0Hl6XcSD95uUf6tm6ngHBOegGa+4lyOo+pr8X9A1OfRte02/tiVntbmOWNl6ghgRj69Pxr9hvBGoy6x4Q0O+lH765soZpP95kBP6k1+qcO4+eKoOnVd3F2v3T/wAj9n4UzGpjMPKlWbbhZJvqnt9x0NFFFfXn3QUUUUAFFFFABRRRQAUUUUAFFFFABRRRQAUUUUAFFFFABRRRQA1/uGvyA+Lf/JSPEP8A18/0Ffr+/wBw1+QHxa/5KR4h/wCvk/yFeHmm0PV/kfmfHP8AutL1ZyVFFFeGfjAUUUUAFFFFACnrXY/Bf/ksPgb/ALDtl/6OSuOPWux+C/8AyWHwN/2HbL/0clVD4l6r80ejl/8AvlH/ABR/NH69L2p1NXtTq+2P6iWwUUUUAFFIelNzgYJ5/pQA+iiigAqM4JI9eKkooA8Q/ac+AEPxt8Jp9jeGz8Q2Deba3bxZLrg5hY5GFbPXnBAODX5n63o9/wCHdVutM1S0eyv7VyksLnJB6gg9wR0r9mm5P6V8lftzfBFvEHh+08Y+HtJNzrtnMI74W68yWu1iWIHJKkDBHOGNeLj8LzJ1o7rdLqu/qvyPz7ijIY42k8ZQX7yK1XdL9UfBmM0lO3BgGGSDyM8cfT1oavBPw5q242iiigQUUUUAOf7n4V+qP7LP/JA/Bv8A15D+Zr8rn+5+Ffqj+yz/AMkD8G/9eQ/ma9HLf4z9H+aP0zgb/eq3+H9UesR/cp9Mj+5T6+nP2cKKKKAPmT/goD/yRe2/7CEf/oLV+d7dD+Ffoh/wUB/5Ivbf9hCP/wBBavzvbofwr5jMP4/yX6n4Zxn/AMjH/t1DKKKK84/PwooooAKKKKAFHQ13fwF/5LV4J/7CcX864QdDXd/Ab/ktfgn/ALCcX86un8cfVfmd+A/3ql/iX5o/W+PoafTI+hp9fbM/qV7jWOMV+YH7bkh/4aQ1/P8ABa2gH4wKf61+n7dK/L/9t7/k5HX/APr1tP8A0QlfJcTf7h/28vyZ8Jxk2sujb+dflI8Lx1PrSYPr+lL2pMt6CvyU/FgwfX9KWky3oKMt6CkBd0zVbzR9Rt7/AE6d7K/tWEkFxGxDKw6EdPy75r9Mf2V/jpB8W/Alnb3tx/xUtihivUY5MhB4kBwOqlSR2JIycZr8wq6XwB481n4Z+KLHxBol00V3bvkxj7kq91cdwRkY7cHtX0eT5pLL63vawejX6+qPqMjziWV4i8ruDVmv1Xmv6Z+x46Ude1cV8LfiNp3xP8FaXr+nSq8N3Hl0VsmKQHDIfcEEV2anjPrX7DGSnFSjqnqfvEJxqRU4O6auiSiiirLCmSfcp9Mk+5QB5B+1f/yQTxb/ANep/nX5VJ2/z2r9Vf2r/wDkgni7/r2/rX5VL/D/AJ7V+YcVf7xD0/Vn4/xn/vdL/D+rDB9f0owfX9KMt6CjLegr4c/PD6q/4J6f8lU1v/sHf+zCv0LT7or88/8Agnn/AMlU1r/sHn/0IV+hifdFfsXDqtl8PV/mfunCn/Irh6v8x1NfpTqilXJ98V9Iz6885+OfxXg+Dnw+vvEM8X2qWMrFb24bb5krHCjODgepweK/Jy9updQubi8uZGnu55Gkllc5LMxJJPqSTX0b+2v8aI/iD4ytvDml3Qm0nRnbzjETiS55U57HaBxj1NfNZGF4xjPpzX5RxFj/AKziVSg7xjp5Xe/+XyPxHijMvruL9jTd4Q0XZvq/yQlJg+v6UDPenoMsK+RW58UM59f0o5/vCvon9nr9ky8+NWh3GsahezaHpxI+xyJFkz8kN17DGB9a9d/4dy6cef8AhLro/wDbBf8ACvoaGQ42vTVWEdHtdpP7mfT4fhvMcTSVWnBWaurtJ29D4Z59RRz6ivub/h3Jp3/Q3Xf/AH4X/Cj/AIdyad/0N13/AN+F/wAK3/1czD+Vfejo/wBVc0/kX3o+GefUUYPr+lfc3/DuTTu3i67/AO/C0f8ADuXTgf8Akbbv/vytH+reYfyr70L/AFVzRfYX3o+Gecdf0o5Pf9K9z/aR/Zsn+BDaTdW95Pqul3xaJriSMDy5AMhSR6jOM+leHHr04/p2P49a8LFYWrg6jpVlZo+exeEq4Gq6NdWkt/n59RFBJx1/SvTv2efi1P8ABv4i2msFXm0y5ItL+FX25iLAGTGDkrnIGOcEZGa8xOe1Cgk4Iyp44PSpw1eeGqxq03Zp3X9eZGGxE8JVjWpu0otNP08uzWh+1FhcxXkEcsTB0dQysO4PI/Q1bJ2j1r5W/Yj+OMfjXwpB4R1a7V9c0tWWDex3zW4xtY+pAOPoK+qeMda/csLiaeLoxq09n+D7fI/orA4uGOw8a9N6P8H1X3j6KKK6zvK9/wD8ek3+438q/HP4i/8AI+a7/wBfRr9jL/8A49Jv9xv5V+OfxF/5HzX/APr5P8q+C4r/AIdL1f6H5rxr/Bo+r/JHOYPr+lH4/pRk+1HNfm5+TdGfXH/BOzjxx4o/684v/Qmr79TpXwF/wTqz/wAJ54nz/wA+Uf8A6E1ffq1+wcPf8i6Hz/Nn7rwr/wAiun6v8zH8X/8AIt6p/wBe0n/oJr8dvFX/ACNGsdv9Nm/9DNfsT4u/5FzVP+vaT/0E1+O/iz/kZ9Yx/wA/s3X/AHzXi8WfBS9X+R4HGv8ADo+r/IysH1/Sl59aTLegoGe9fnB+UnpH7Of/ACXPwV/2EU/k1frbxuxX5Jfs4/8AJdfBX/YRT+TV+tg+/X6hwr/us/8AF+iP2Dgr/c6n+L9EPooor7Y/QwooooAZwM/rUNzIIwSelEpAPPQ+1fLf7Z/7Qeo/DjTNP8NeHZI49T1eKX7Tcqf3lpENoUj0LZYA9sZFcmLxMMJRlXqOyX4+S82cONxdPA4eeIrfCvxfRLzPLf2yP2lI/FF2vg7wpfzw29lJImqXETbRMxwBGMc4GGJOecjjivkn7pYHjBwOent/Khsly/zEsSxLnJJPc+ufXvTfm9q/F8fjqmPrOrU+S7LsfgGZZjVzPEOvUb12XRLSyX3a9xaTB9f0oy3oKMt6CvLPJDB9f0obpQM57Up6GgD9Gf8Agn2C3wFAJ+7qc2PptSvoXxHpEeu6HeafIBtuI2jJIzjPevnv/gn1/wAkGf8A7Cc3/oEdfS0mG5HUdK/c8vSeCp32cV+R/RmVpTy+ipbOKX3o/Gvxx4Yn8G+K9Z0S45n0+6kty2MBgGOCB7jB/GsILxwentX2F+3n8Hjp2uW/xA0+BzaXSLbaksaZVHH3JCO2eFJ6cCvkCQbuf4exB7V+SZng5YPEzptWV7rzT2PwzNsDPL8XOi1pdtPunqvw3GYPr+lKOvPP4UnIHFGW9BXjnjEiIHGG/L275r6o/Za/a4j+HOnr4U8Yte31lNd/6HqbzmU26sFURFCM7BgkEHjJGO9fKYz3xT0JDjH056fjXq4DH1cBVVSk/VdGvM9XL8xr5bWVWg7d09U0ftVZzx3NvHNEweNxuVlOQQeh/Wp8k+1fD/7HX7T0nm2XgDxTMkdtDEyabqc7ndIdxIiZieSASAeOFA5r7Yhm8xVIHyHkENnP+RzX7HgsZTx1JVaT33XVPsz97y7H0sxoKtSfquqfZluiiqc8oiUu5EcYzuZjgYHc13npkGq6nb6Pp9ze3cgjtrdHlkkJ4VQMk1+cP7TX7Ul58X9Um0rw1d3Fl4RiHlkK5Vr48FiwwNoBBAGTkDPGcVr/ALXX7R2t+LfGGteDtE1CNPCNm6Qu9ofmu5AqlwWH8IYkY6HbXzISR6fh0r83zzOnNvDYZtJOzfdrovL7j8m4j4hdVyweFbSTak11aeqXl5gfl44GPx47U0ZI9PbFByT2oy3oK+B3PzUMH1/SjkfxfpRlvQUqDLcnAHOPX2oSuGp2Xwd8GTfED4meH9CiYD7TcqzsRkKi/Mxx9FI/Gv1y0XT4tI0qzsYjmO1hSFT04AwP5V8pfsS/s/ReGNLi8f6kxfUdUtgbON0A8mFuQw92XacnnBNfXI/hAr9e4fwDweGc6nxSs/RdEft/C+XSwODdSovem7/LoTUUUV9QfaBRRRQAUUUUAFFFFABRRRQAUUUUAFFFFABRRRQAUUUUAFFFFADX+4a/ID4t/wDJSfEH/Xz/AEFfr+/3DX5AfFr/AJKR4h/6+T/IV4eabQ9X+R+Z8c/7rS9WclRRRXhn4wFFFFABRRRQAp612PwX/wCSw+Bv+w7Zf+jkrjj1rsfgv/yWHwN/2HbL/wBHJVQ+Jeq/NHo5f/vlH/FH80fr0vanU1e1Or7Y/qJbBRRRQAw8A18wftG/FkfBf41+BNcn8x9KuLS5tdQgU/fQlAjDsCrEEn0zX1AelfC3/BRX5fEXgs9vIufp1jrzsdOVOjzRdmmvzR87n+InhMBLEU94OLXya/PY+2dJ1a21rTLW/spVuLS4iWWORCCGUjIINXwSVB6V+d37JH7SGo+CPEWl+D9dvEbwpdM0cU0zfNZyEEpzg/IWAUDPG4HoMV+hdvcx3EKSxyB43XcrKcgg9DmtsNiI4iHNHdbo6MqzSjmuHValo1o12dk38tdCzRSDoM0tdZ7QVBcIr7ARnBzz7VPTWUN1oA/P/wDbT+AGmfD+dvH+jNMkWragIb+zIykcjKzCQHsMqQR6sK+VcY6HKnvn0zX7L+IfD2m+KdJm07VbOK/sZhiSGZdysPcGvzS/aa/Z7ufgp4kN1ZoZfCeoSn7FcY/493OT5DkknIAJBPUDHUV83jsN7KTq01o9/Jvr8z8e4ryGVOcsfhl7jtzJdH39PyPE6KcylSQccelNry9T8tCiiigBz/c/Cv1R/ZZ/5IF4O/68h/M1+Vz/AHPwr9Uf2Wf+SBeDv+vIfzNellv8Z+j/ADR+mcDf71W/w/qj1iP7lPpkf3KfX0x+zhRRRQB8yf8ABQH/AJIvbf8AYQj/APQWr8726H8K/RD/AIKA/wDJF7b/ALCEf/oLV+d7dD+FfMZh/H+S/U/DOM/+Rj/26hlFFFecfn4UUUUAFFFFACjoa7v4Df8AJa/BP/YTi/nXCDoa7v4Df8lr8E/9hOL+dXT+OPqvzO/Af71S/wAS/NH63x9DT6ZH0NPr7Zn9Svca3Svy/wD23v8Ak5HX/wDr1tP/AEQlfqA3Svy//be/5OR1/wD69bT/ANEJXyXE3+4f9vL8mfB8Zf8AIuj/AI1+UjwvoKbub0p3QUm72Nfkp+Libm9Kfmm7vY/lXU6z4A1LQPCnh7xHOok0bXEkNvcqCFSRHZWjbrggqSPUH2NbQpSqRlKKuoq79LpfqaRpznGUoq6irvyV0r/e0csWOelKBk56GgD2NITg9DWNrMzejseq/AP4+ap8CfEE1zbxLeaVfFFvbR85IBOHU9mAJFfqN4X1218T6LY6rYyCWzu4VnicHIIYZHT/ADnNfjKCccDOfU19R/sf/tMf8K7vovCHiO5Y+HLlgLS6dsizkJJ2txnYxPXOAfqcfcZBm/sZLC137r2b6Pt6N/ifoXDGd/VZLB4h+49m9k2/yf56n6JL0oHFU7C9ivoUmgkWSGRQ6OpyrKQCCD3BBBz71dr9NWp+whTJPuU+mSfcpgeP/tYf8kF8W/8AXt/WvyrXqv8AntX6qftYf8kF8W/9e39a/Kteq/57V+YcVf7xD0/Vn49xn/vdL/D+rE3N6Ubm9KXd7Gjd7Gvhz89Pqn/gnn/yVTWv+wef/QhX6GJ90V+ef/BPP/kqms/9g/8A9mr9DE+6K/YuHf8AkXw9X+Z+6cKf8iuHqxGPBxya8z+O3xas/g94CvdaucNcOphtYiwG+UqSB9OO1ejvKF3ckcZ4r8w/2sfjlH8ZfHEMWmzsfDulL5duv/PaUn55MY9gBnPTjrXTm+PWAw7mvieiXn3+SO3PMzjluEck/flol59/lv8AceIOQ2MZJA5J7mozx70pJBOcnvxzSbvY1+LyfMfz+9XcAx9P/wBdbHhTwzqHjXxFY6HpKGS/vHCRqATtA5YnHPAzWQuSeOvbPAr7x/Yc+AVx4YtpvHGvWwjvb+FV06NuTHCcEueeC3AwRkYPrXsZVgJY/EKFvdWrfZf8HY9vJstnmeKjSS91at9l/wAHZH1V4c0e30HR7HTrRNttZwpBEO4VQAM/lW1nk1EsYXODUo61+1pJKyP6FSUVyrboLRRRTKCiiigDiPi14DtfiZ4A1vw1dHYl/btGsoHMbjlGH0YA/hX5JeI9CufDHiDUNIvo9l7YXDW8h5HKkjOD2IAI9jX7P7AOpz7V8d/tq/s5W+s2GofETRcQahZRebqMCr8s0Kj5nz/eAwfotfI8QZc8VS9tTXvRTv5rf8Hr8z4TinKpYygsTRV5wvfzjv8Ag9fRs+EnJDf3u+aQEk9MU84OMHPHUDgjqMU3H+cV+TbM/F9tGdf8JfiC/wAK/iNoni1IvtA06RjJF3aNkZHx77XJHuBX6w+B/Fdn448N6brmnNmyv4FnQZBIBHQn1ByDX44qvzcck+ua+uf2GfjpLoWvW/w51FJJrXUJZJLCcv8ALbsEZ3Qg9m2nAB4JNfccN5iqFT6rUfuyd15PRfjsfoHCmaxwtV4Oq7Rm7rylol99rH33RUCTbmA59+Opqev08/Yyvff8ek3+438q/HP4i/8AI+a//wBfJ/lX7F37YtZf9w/yr8dPiMcePNe5/wCXpu/tXwXFf8Ol6v8AQ/NeNX+6orzf6HN7m9KXcfQ0uPf9KQjH/wCqvzQ/Jrqx9b/8E6/+R78UcY/0KP8A9Cavv5a+AP8AgnXn/hOfFB/6coxn/gTV9/r0r9k4e/5F8Pn+bP3bhb/kVU/V/mZHi7/kW9U/69pP/QTX47eLP+Rn1jv/AKbN/wChmv2J8Xf8i3qn/XtJ/wCgmvx38Wf8jPrH/X7N0/3zXicWfBS9X+R8/wAa/wAOj6v8jI3N6UoJz0xRu9jQDz0P5V+cH5Sej/s5n/i+fgv/ALCCfyav1uH3q/JH9nP/AJLp4L/7CCfyav1uH3q/UeFf91n6/oj9f4L/ANzqf4l+SHUUUV9qfog0imPweDg+9OLce9ec/Gv4z6H8FPDK6xrTSTGVjFbWkGPNnfgkKDxxwST0/Gs6lSFKDnNpJdWZVasKMHUqO0Urt+RzP7UXx0PwS8CJc2apPrepObexjY8KQMtIR3Cgj8SK/MjxBr194o1q81bUpjcX95IZppSMbmPoOwHGBXTfFv4p6v8AF7xhc67qsjbHJFra5ytvFnhQMYzgDJwMkZ9K4rpX5BnOaPMK3LBvkWy7vq/8vI/C8+ziWZ17QbVOOy/Nvz/JCUUH64p8ULzvFHErSSSMFSNQSzsSAAAOpJPQV85FN6I+XSbdkMJxSbmx0rrfHfw41f4dDSF1qMW13qloLyO1Iw8Me4qA/PU4zjtwPXHKHI+lbVaU6E+SorNW0fmrl1KU6MuSorNWunvqr/kxoJJ6Up6Gk3ex/KlPQ1gZH6N/8E+v+SDP/wBhSb/0COvpodK+Zf8Agn1/yQZ/+wpN/wCgR19NDpX7pln+50v8K/I/o3Kf9wof4V+RQ1Oyh1GzmtZ4xLBcKY5FboykYIP4V+a37V37PafB7xVbXvh6yuX8MX8ZdpGBYWs24hlJx90/KRnnJI9K/TVgCB/FWZ4h0Kx8R6bcabqVtHeWVzGY5YJVDKykYIOelTmOX08wpezlo1s+z/yMc2yqlmtB0p2UlqnbZ/qn1R+MTAZOF2jJ5B+97/jTCTxxmvf/ANqP9mmb4LahFq2kJNc+Ero/61+Ws5CT+7PJyuMYb1yD2z4I6hQpA4PIIOcj/P8AnsPx3F4SrhKrpVVZr8fNPrc/CMbg62BrOjXVmvndd0+qZFub0pQSTyMUp47H8qTd7GvPPPHFPMQptLbgRgHk8dK+y/2OP2m4NNh0P4a69brCiiRNO1BpccszMI3B75JAIPoMV8ZA56g/QipEkZCpQsrAggqcFSOhB6gjtjpXsZdmFTLqqqQ22a7r/Psz2MszKrlldVqb02a6NaXX4LU/aUlV5cqMDJOcADrnNfnl+2F+0fN8RdZvfBmjyCLw5p1xsmuo2ybyUDnBHRQcj3Irz/Vf2mPHOq/DXTPCC6tPBDbiRJr8SH7RcozEhHPUBQSAc8gCvJck47Y5GOOfWvpc24gjiKKo4a6va7fpsvyb8j63POJli6CoYRON0uZvfbVL0ejflpoNOQcbMY4x6UZPp+tG72P5UbvY18Hqz86E3N6U4c0daAVHUgDp6Y96ErgOXkjkBgeC3Tmvq/8AZL/ZTtfH9lF4x8VpKunRThrCxwV88qQRKxP8J4AA4PPNV/2Xv2QT8RdO0/xh4plMWiNKWt9LCHdcqrEEuSQVUkEAY5A9DX3/AKfYQadax21tCsFvCgjiiQYVVAwAB2AHGPav0PI8kemJxK0srJ/m/Lsj9R4c4fbaxeLWlk4p9ezfZWei+8ktYhGEQIERF2qF7Dpj9KtU0ADpx2p1foZ+pBRRRQAUUUUAFFFFABRRRQAUUUUAFFFFABRRRQAUUUUAFFFFABRRRQA1/uGvyA+LX/JSPEP/AF8n+Qr9f3+4a/ID4tf8lI8Q/wDXyf5CvDzTaHq/yPzPjn/daXqzkqKKK8M/GAooooAKKKKAFPWux+C//JYfA3/Ydsv/AEclccetdj8F/wDksPgb/sO2X/o5KqHxL1X5o9HL/wDfKP8Aij+aP16XtTqavanV9sf1EtgooooAQ9K+Ff8Agox/yMPgv/r3uf5x191HpXwr/wAFGP8AkYfBf/Xvc/zjrzMx/wB3fqvzR8lxV/yKKvy/NHx9lsAgkcg5BwQQeMHtg4I9MV94/sS/tASeKNMk8E+ILxZNUsVB06aVvnuYcElfcrjHuMehNfBoBP1qa3vJ7OaO5tZWguomWSGaM4ZGBBBB7EEV8/QqvDzU4+jXdf11PxvJs2qZTiVVjrF6NXsmv81umftIv3RmlAwOteB/svftJQfGzSLiwu7VrLxBpsafaYy2VlBGPMX0BIPHavelbIHNfXUqka0FOOzP6GwuJpYylGtRd4skooorU6xjDPfH0rhfi/8ACzS/i54HvvD+qKWSYCSGTvFKv3HHuM/qRXdjFI670xmplFSi4taGdSnGrB05q6as15M/H34hfD3W/hh4pudB12BoruL50lK4E0Z6MD0PTBx3FcwAcjjBxmv1R/aL+CMHxq+Hk2kJKttqVu/2mxnK52ShSACewOSDX5b6rp1zpOp3unXsZhv7OVoZ4z1R1JB/UHmvkcTh3hZqO6ezf5ev5o/AuIsleU1+aGtKWztt5fL5XKlFFFc58aOf7n4V+qP7LP8AyQLwd/15D+Zr8rn+5+Ffqj+yz/yQLwd/15D+Zr0st/jP0f5o/TOBv96rf4f1R6xH9yn0yP7lPr6Y/ZwooooA+ZP+CgP/ACRe2/7CEf8A6C1fne3Q/hX6If8ABQH/AJIvbf8AYQj/APQWr8726H8K+YzD+P8AJfqfhnGf/Ix/7dQyiiivOPz8KKKKACiiigBR0Nd38Bv+S1+Cf+wnF/OuEHQ13fwG/wCS1+Cf+wnF/Orp/HH1X5nfgP8AeqX+Jfmj9b4+hp9Mj6Gn19sz+pXuNbpX5f8A7b3/ACcjr/8A162n/ohK/UBulfl/+29/ycjr/wD162n/AKISvkuJv9w/7eX5M+D4y/5F0f8AGvykeF9BSbh60tFfkjPxcCwwea/Qn4F/CjQ/jF+yT4X0LXomMJa4kiliOHhcTyfMD26kH61+ex+6a/T79i1c/s4+Eu3/AB8/+j5K+y4YhGpiakZq6cXdPZ6o+64QpwrYyrTmrpwaafVXR+dPxL8DXPw38b634cutzT6dOUViOZIz8yMB7qQfxrmCcnp2zX6k/tL/AANi+NngWSytikGuWjefZXDL1YAjYT2DA/mAa/MrxH4Zv/CGu32j6pCLfULOQxTQg5weOQfQ5BH1rizjKp5fVclrBttPa3lv06Hn57k08srXjd05NtO1rX1s9dWu/VGVQEDDBPynqAcUEEE560diPUYz3Ar5tNpnyyb6H6GfsZ/tD2njTwzZeDdYuooPEOmQi3to2ODcwIMI2e7bcAjqcE19RxOWzkY56V+K1pLJZzRzwyPDNEweOVT8yMDkEH1BGa/T/wDZf+OVv8Xvh/C8vya3pmy0v4+xkC8OPZhzz3yK/Vshzf65H6vV+NLR91/mfsnDOefXYLCVvjitG3uv8166o9xpkn3KZFKJG49M0+T7lfYH3x4/+1h/yQXxb/17f1r8rE7f57V+qf7WH/JBfFv/AF7f1r8rE7V+YcV/7xD0/Vn49xn/AL3S/wAP6sTcPWjcPWlor4Y/PT6p/wCCen/JVNZ/7B3/ALNX6Ff8s/wr89P+CefHxU1r/sHH/wBCFfoMs4zt4z0HNfsfDv8AyL4er/M/dOFP+RXD1f5nmn7QvxKT4V/C3XNZWaOO+8ow2gfq0rfKMDvjOfoK/JzaEDRgcA5z79f6161+1F8T5Pin8XtWvYmcaXp7Gytoy2QQhwWx05OSPY15Nu3Ekd6+Gz/MFjcRyx+GF0vN31f4H5zxJmizDF8sF7kLpa7u+r+enyQ0YUY6ClBBP0BJx6CilAznnHGc49Oa+WPkTW8JeGbrxh4r0vQbNGkur+4SFQgyQCQGb6AEn04r9jtK06HS7SC1t1EVvDGI4o1GAqgYAr5h/YS+E48M+BZ/FV9En9oa6++D5cmOFchcH35P0Ir6oji2YJ5r9eyDL3g8P7WfxTs2rbLov1P2/hfLHgcJ7afxVEm/JK9l+LZMRmlprttGaYZsdq+pPtCWiojMijllX0BOKPtCH+NP++qVwJaKi85f76/nS+cn98fnRcVxxFY/iXw/a+KdC1PSL4FrLULaS1mUd0kUq36E81qiZf7y/wDfVNd1bo6jj1pSXMrA0pKz2PjS8/4Jz6bLeTG08WXMFsWJiiMIYovYE98DjNRf8O4rX/ocrj/wHWvs8Mq4+dR+NOMinow/A14byXL27+yX3v8AzPnHw7ljd3RV35v/ADR8W/8ADuS2AyPGNyPQ/Z14rS8PfsEv4Q13T9a07xtcRX9jOs8TiBfvA5IPseQR7mvsEdOoz9aQjI4NVHJsDCSlGmk0007vdddxx4dy2LUo0rNO6d3o1s9yC3ieMp5jbnwMsOAT3wPrirtQbtoJGD0OM4xSi4BQMBkEZr3D6MZNCs0brnBIIz+lfJWu/wDBP3Sde1m91GTxRexy3MhkZViTAJ7CvrluFpikuoK9PUVx4jB0MWkq8b22uefjMvw2PssRDmttvpf09D48/wCHc+jD/ma7/wD79J/hTT/wTn0Y/wDM13//AH6X/CvsgZ9aN2BnOK4f7Fy//n0vxPM/1eyt/wDLlfe/8zwn4AfswWXwI1vUtRtNYudSN5CsTRzqqgAE8jH1r3hRn3qMMCDinIw//XXpUaFPDQVOkrJdD2cNhqWEpqjRVorZGX4u/wCRb1T/AK9pP/QTX47+Kz/xU+sf9fs3/oZr9iPF3/It6p/17Sf+gmvx48V/8jPrP/X7N/6Ga+I4s+Cl6v8AI/PONf4dH1f5GRuHrSg5oor83R+Uno37Of8AyXTwX/2EE/k1frcPvV+SP7Of/JdPBf8A2EE/k1frcPvV+pcK/wC6z9f0R+v8F/7nU/xL8kOpCcUFsDNVp7gRq5fCKoJLMeMDr/KvtGfohX1S/g0u0nu7mdLe2hQvJJIcKigZJJ7V+Xv7S/x5vPjb4vGFjXQdKmmj0wICC6kqDIc9dwQEccA1237avx2tfiT4ksvD2h3Uv9kaOZPtMiMQl1K+3AI7hQuQT3Y+lfM7AMSRxxx9K/Nc/wA29s3hKT91PV93222T+/0PyDifPPrEngcO/cT1ae70dttk/PX0AtzyfwoBzSKMClwSPbufSvg9z87HIm/jP5/yHvX1X+xJ8BI/GOvy+M9dsnfS9NZP7NVxhJ5udzjPUKQAO2T7V51+zH+z/wD8L08UXn2y8Nno2jPDNdhRlpi5bbGO2CEbJPTjiv0902wh02yhtreJYIokCKiDAAAwMD24r77h/KPaWxlbZapd7O136W7H6Pwxkft5Rx1f4Vsu77vXZW7as/Pz/goUoT4uaGB/0CFx7fvGr5dr6k/4KGj/AIu9oh/6hA/9GNXy3Xz2ef8AIxq+q/JHzGf/APIzrev6ITcPWlPQ0UHoa8E+fP0b/wCCfX/JBn/7Ck3/AKBHX00OlfMv/BPr/kgz/wDYUm/9Ajr6aHSv3XLP9zpf4V+R/RuU/wC4UP8ACvyFprJuz7inUV6Z6xgeKfCumeLdJl0vV7GPUbCbiSCYZB9D+Ffmb+0v8Cpvgt42ZLKCd/Ct6PMs7twSI2JOYSfUYyM4JB74r9S2j3jH6Vn67o1lrumz6ff2sd5Z3CFJYJVBVgcZyDXi5pltPMaVpaSWz/R+R8/nGT0s2o8ktJrZ21Xk+6f4H4wsMewycHPam55617P+1L8Ek+C3jxhYiR9A1MfaLZyvELFiGi44AXgg8cMB2rxuRdh2n7wPI9K/IMXhp4StKlU3Tt/wUfhGMwlTBV5UKqs4u3/B+ZHuHrShgO/60UVwHGBfJHI46AGk3D1paKpu4b7ibh60tFAUkEgZA5OO1CV3ZBZvYVRuYDoDn5sdK+iP2T/2a5vitrceu+IbGWPwjbHfE3Rb5wxBUHrtDAg464xmrf7Kf7LsnxXmTxJr/wC58MQSEQxAAtdSAkHr0UEH6kV+iOm6dBptjBZ2kK29tAoSOOMYCqBgAD0FffZJkntLYrErTRpW3835eXXc/SuHeHXV5cZi17u6T69m/LytruN0jSrbRrKKzs7aO1tIlCxwxqFVAOwA/GtFVxQtOr9HtY/WEklogooopjCiiigAooooAKKKKACiiigAooooAKKKKACiiigAooooAKKKKACiiigBr/cNfkB8Wv8AkpHiH/r5P8hX6/v9w1+QHxa/5KR4h/6+T/IV4eabQ9X+R+Z8c/7rS9WclRRRXhn4wFFFFABRRRQAp612PwX/AOSw+Bv+w7Zf+jkrjj1rsfgv/wAlh8Df9h2y/wDRyVUPiXqvzR6OX/75R/xR/NH69L2p1NXtTq+2P6iWwUUUUAIelfCv/BRj/kYfBf8A173P846+6j0r4V/4KMf8jD4L/wCve5/nHXmZj/u79V+aPkuKv+RRV+X5o+PKO3TnOc0UV80fzydV8OfiHrHwv8X2XiPRJit7bEhos/LNGww0bDoQR0yOCAR0r9PPgz8cPDnxn8Ox3+j3CpeIgN1p7sPNt27gj65we9fk7gDAzknnOcD8a9M/Zv8Aiinwh+K+na5cMU0q4BtL9QeGjcYDHPQq2xifQEd67MJiJYadn8Levl5/5n3fDWezy+ssPUf7qTS16N6XX6n6uI2RTqy9D1uz13SbfULKdLizuEEkUqEEMp6EEVpBgScV9ZvqfuyaaTTumOooooKIyMrj1r5V/a7/AGZh4z0g+J/COkxHxNDMGu0hwrXcJUg8dCwO0j2z3r6r55pso+Q5GawrUo14OEv+GODHYKjmGHlh660f3rzXmfi3NbSW8kkc0bQzRsUkikGGRgSCCOxBHSoxX1h+2x8AbXwjcy/EHSJZRb6neJDfWITKxyMrES57AlQCOmWHrXyeQQcEYPpXyVSnKlN05br8V0fzP50zXLamV4qWHnqt0+66MV/ufhX6o/ss/wDJAvB3/XkP5mvyuf7n4V+qP7LP/JAvB3/XkP5mu7Lf4z9H+aPs+Bv96rf4f1R6xH9yn0yP7lPr6Y/ZwooooA+ZP+CgP/JF7b/sIR/+gtX53t0P4V+iH/BQH/ki9t/2EI//AEFq/O9uh/CvmMw/j/JfqfhnGf8AyMf+3UMooorzj8/CiiigAooooAUdDXd/Ab/ktfgn/sJxfzrhB0Nd38Bv+S1+Cf8AsJxfzq6fxx9V+Z34D/eqX+Jfmj9b4+hp9MTpT6+2Z/Ur3Gt0r8v/ANt7/k5HX/8Ar1tP/RCV+oDdK/L/APbe/wCTkdf/AOvW0/8ARCV8lxN/uH/by/JnwfGX/Iuj/jX5SPC+opNo9KXqKTZ9a/JT8XEKDB47V+oP7Ff/ACbh4U+lx/6Pkr8vivB5PSv1B/Yr/wCTcPCn0uP/AEfJX2nC3+9VP8D/ADR99wZ/v0/8L/NHuPlbwc45r5G/a6/ZUk8Y3Op+O/DRdtaWJHu9PC5F0EULuU54YKBxjnb6nNfXg6VDOCQxGW46V+i4vCUsbSdKsrp/h5rzP1XHYGjmFB0Kyun96fdeZ+KjAhjnIxkHIPBHBGOvBGPwpmAeor6P/bP+CX/Cs/GY8R6XEf7B1uQs6KvFtccbgT2VuoHYk184Ou3g5GB3r8VxuDqYGu6NTps+66M/n3H4Krl+Ilh6q1T0fRrdP7hVO3PX2we9df8ADT4oeIfhR4jj1nw/etbvlRc27DMVzGDkqw598EcjJrj8AjqfzpyExgsOexB9PSualWqUZqpTdmtmctGrUoVFUpNqSejTP14+E/xS0X4q+ErPWtKuI3MsSG4tlfc1vKVy0be4zj8K7hmHrgmvyq/Zy+Pdz8CPE9xO0DXuiahhLy1U/MDn5ZF9CMnI6YNfqHoWs2+vaJYalauJLW8gS4hbP3kZQynPvkV+yZVmUcwoqW0lo1+vzP3nJM2hmuH5npNaSX5P5/meZ/tYf8kF8W/9e39a/KtRnH+e1fqr+1ec/AXxbjn/AEb+tflUo5H+e1fGcVf7xD0/VnwPGf8AvdL/AA/qw2j0o2j0o2fWjZ9a+HPz0+qv+CefPxT1r/sHf+zV9g/HjVvEGi/CnxHeeF4DPrEVsxhCn5l5AZl45IGSB3xXx9/wT0/5KlrQ/wCod/7NX3/NErjYY8qc54yCD1B/Ov17IYueWxina/Mrrpqft3DVN1MnUIuzbkrrdXdro/Fl3LnJJO7kk8kk+/rTBhgOK9E+PXw6k+E3xS1vw6qsbISG4s5JF6xN8wAPfGcZ9RXnZTB4JI7EV+WYmjKhVlTnunY/G8TRnh6sqVRaxbT9VoG0eldL8NfCUXjjx9oOgTXiWEF/dpFJO54C5yQPcgYHuRXNbOe9T2N1Ppt9b3Vs5S6t5Fljf0ZSCD+YrOjKMakZTV0mrrur6mdGUY1IymrpNNrur6n7N6JpdpotjbWNlbx2tnbRCOKFBgIo6AfStMjArgPgx8S7f4qfD/SPEkYWJ7uMiWEH7kikhh+Y49sV3pcHj+VfvdOcKlNThs1p6H9MUZwqU4zp/C0mvRmX4h12z8O6NeanfzrbWVpE000znhEUEkn8q/P74t/tyeLPF15d2/hE/wDCPaKVMaTMFe5lGMF84wme2MketfRv7cviKfRfgTe28DbDqNzFaO3opJY/mFx+Nfmwx5ZgAoOB16AV8PxDmdbD1Fh6LaurtrfXZH5xxVm+Iw1SOEoS5U1dtaN3vZJ7o6m++LfjjUZPMuvF+tTP0ybx1A+gBxUI+J3jBTx4r1oe/wBvl/8Aiq5mk2fWvz94qu9XN/ez8zeLxD1dSX3v/M6j/haPjH/oata/8GEv+NH/AAtLxmDx4s1sew1CX/GuX2fWl6UvrNb+d/exfWq/87+9/wCZ1Q+KnjTt4t1tf+3+X/4qk/4Wr41/6G/W/wDwPl/+KrlSM0bPrR9Zr/zv72H1rEf8/Jfe/wDM6o/FXxr/ANDdrZ/7f5P8aF+K/jZTuHi7WwR0P2+T/GuV2fWjZ9af1msvtv73/mP61iP+fkvvf+Z2C/GHx6vTxprn4X8n+NOHxj8escf8Jnrvt/p8n+NcaFweM57U9AQSSOADkn0oWJrt/G/vf+YlisRfSo/vf+Z7f8DNR+JHxg+JOm+HovGmuxW0m6a8mF9IfLgQZJyDwScKPUkV+mtnafZYUjDM21Qu5zyQOMk+pr5k/Yc+C03gXw1c+KtVz/aetRp5KBSBFBjcBzzkk8/QV9Tgck1+uZHhamHwynWbc5au7bsui/U/buHMHUwuCU67bnPV3bdl0Svtpr8yG94tJSDhgpINflP45+M/j7T/ABnrNvb+NNahhjuGVES6YBRgYAGa/Vm/H+iTD/YP8q/HT4i/8j5r3/X0a8niirUpU6XI2rt7O3Y8XjGtUpU6Lpya1eza7djZX49fEhenjfWM/wDXyTUi/tAfEpcY8b6v+M2a4Ckxk1+eLG4lbVH97Py769iktKsvvf8Amfbv7DHxL8WeOfGHiO38QeILzWIIbSN4o7lgQpJbJH5CvtVflHJxXwL/AME6uPHfif8A684//Qmr78U+nNfrWRVJ1cBCVRtvXf1P2zhmpOrlkJ1G27vV+pk+Lv8AkW9U/wCvaT/0E1+O/isZ8T6x3/02b/0M1+xHi7/kW9U/69pP/QTX47+LBnxPrH/X7N0/3jXgcWfBS9X+R85xr/Do+r/Iydo9KAAKNn1oC4r84R+Uno/7Of8AyXTwX/2EE/k1frbnDV+SX7OY/wCL5eC/+wgn8jX62MwGc1+ocKu2Fn6/oj9f4K/3Op/i/REUkykfewPevj/9sj9ppNCsrvwL4Zum/taYBdQvIH4t4znMQIGd7dz2HqTx6j+1D8c7j4LeBIr3TIIrnWL66Wzt0nPyoCjsXIByQAuPqwr8ztV1O51fUru/u5TPeXcr3E0rdWdiST+vA7Vef5s8NH6tRdpvd9k/1f4GnE+cywkXg6DtNrV9k1+b/BfhS4A465JzjqT1J9z60m0e/tk08nn/AApm3ce/4d6/LG23qfjl29xdgIzjpXd/B/4P6/8AGLxImk6LAUgDJ9rv25S1Rs4ZhnkkA4GRyK5HSNJu9cv7XTrGJri7uZBHFEoJLsSMAAc+59hX6ZfssfBAfBvwJIlyTLrWrFLm/YDGwgHbGB2Cgn8Sa+jybLHj6y9onyLVv8kvN9eyPqsgyh5piV7RP2cdW/yXzf3I7j4T/CLw/wDCLw2uk6DZiBW2tcXB+/cSAY3Oeefbtk13ZUKKaihSRjBp79Div1+MI048sFZeR+6UoQpQUKaSS2S2R+eH/BQ7/ksGif8AYJH/AKMavluvqT/god/yWDRP+wSP/RjV8t9a/GM8/wCRjV9f0PwPiD/kZ1vUTaPSlPQ0gTB6mlPQ14Z86fo3/wAE+v8Akgz/APYUm/8AQI6+mh0r5l/4J9f8kGf/ALCk3/oEdfTQ6V+6ZZ/udL/CvyP6Nyn/AHCh/hX5C0UUV6Z6wVFKASPXrmnlgOCcVHI4yMEZHNAmcv488C6H8QvD13pOuWUV3ZzxlW3gZTj7wPUEcEHPavyo+LHgzSfAfjS+0fRfEMHiWyh5F1Cu3yzuYeUxyQWUAEkHB3DivsP9sr9pjUvA15J4G8OrEt5eWIe8vyc+QsjMoRQOjYUk56Bga+CyiqMADrknOcnuSfU1+acTYvD1JqjBJzi9X28vP9D8k4uxuFrVFh4RTqResu22nn872E2j0o2j0o2fWjZ9a+DPzgNo9KNo9KNn1o2fWgBV64FejfA3wBoPxF8c2Wk6/wCIoNEt2kXEMiHfdjvGjZAUnGMk9+BXnIHf6VIsjIY3R2SRCGVgcFSDkEH1B5xXZhalOlVU6kVJJ6p9UdWGqU6VWNSrFSSabTvZ+Wh+yXhvw/p/hbRbHSNJtUsbCzjEUEEYwFUdPxPJJ7mtsEEZ7V85/sm/tFL8XNB/sXWGWPxLpkarK5IAu07SKOxAwD1Gc19GI4ZTyPzr9xw1aliKUatF3T28vK3Q/ovB4iji6Ea1B3i1p/lbpYlopAc9KWuo7gooooAKKKKACiiigAooooAKKKKACiiigAooooAKKKKACiiigAooooAKKKKAGv8AcNfkB8Wv+SkeIf8Ar5P8hX6/v9w1+QHxa/5KR4h/6+T/ACFeHmm0PV/kfmfHP+60vVnJUUUV4Z+MBRRRQAUUUUAKetdj8F/+Sw+Bv+w7Zf8Ao5K449a7H4L/APJYfA3/AGHbL/0clVD4l6r80ejl/wDvlH/FH80fr0vanU1e1Or7Y/qJbBRRRQAh6V8K/wDBRj/kYfBf/Xvc/wA46+6j0r4V/wCCjH/Iw+C/+ve5/nHXmZj/ALu/Vfmj5Lir/kUVfl+aPjyiiivmj+eQpytg5zt+nOabRR6gfRP7HnxzT4ZeNjoes3jxeGdXwiKTmO2uSQFcjsrdCR0JGe5H6PQSpKu5WDKQCCOhB6V+LIGT1KnjGDgggggg9iCAa+3/ANjD9o++12eTwT4rvkmnii83T9RuJArSgMqmBvVhuBBB5GRjivXwGJVP9zN6dH+j/Q/XOEs9Vll+Iev2W/yb/I+zqKiiI3EAk/yqWvoT9XCmyLuUinUUAUtR0+21SymtLuFLi2mQpJFINyupGCCPSvzW/as+AD/BzxSmpaXCF8J6nKBb+XnEE2MmI+gIBIPsRX6ZtjDHNcZ8Tvhlo/xW8HXmgazFutpvmSUHLQyAELIp9Rk/y6Vw4vDLEQ0+JbHgZ1lUM2wzpPSS1i+z/wAmfkSTuXjnjtX6o/stDPwD8Gj/AKch/M1+dHxe+DXiH4M+IW0zWYN9tKWNpfRD5LhQepwSFbGCRnjNfot+yz/yQHwd6/Yh/M15GXpxryjJWaT0+aPgeD8NVwmPr0ayakoq6fqj1mP7lPpkX3afX0p+uhRRRQB8yf8ABQH/AJIvbf8AYQj/APQWr8726H8K/RD/AIKA/wDJF7b/ALCEf/oLV+d7dD+FfMZh/H+S/U/DOM/+Rj/26hlFFFecfn4UUUUAFFFFACjoa7v4Df8AJa/BP/YTi/nXCDoa7v4Df8lr8E/9hOL+dXT+OPqvzO/Af71S/wAS/NH63x9DT6ZH0NPr7Zn9Svca3Svy/wD23v8Ak5HX/wDr1tP/AEQlfqA3Svy//be/5OR1/wD69bT/ANEJXyXE3+4f9vL8mfB8Zf8AIuj/AI1+UjwvqKTb/tGlHSk+b2r8lPxcQrweT0r9Qf2K/wDk3Dwp9Lj/ANHyV+X53YPTpX6gfsV/8m4eFPpcf+j5K+z4W/3qp/gf5o++4M/36f8Ahf5o92X7ooIyKF+6KWv1M/ZShfWMF7bzQXEKTQSqUeNxkMuOQR3HJr8t/wBpv4L3fwe+Id2kVuIvD2pStNpsifdUEAtEfQqSceoxiv1UIyBXm/xt+Dmj/GvwfLomps1tKp821vkUF7aQdGGSMjsRkZHp1rw82y5ZjQcV8S1T8+3zPm89ytZphXCK9+Oqfn2v2f5n5JkHdzwfQdRQBjuT9a6P4geDL34e+MdW8OagHN1YXDwiZk2CdATtkAycBhggZOM9a533/CvxqrTlSk4TVmnZr0PwSpTnRk4VFZp2a80KCR0OPevqT9kD9pSTwRqlt4N8QXD/APCP3chS1uZGyLaRiMKe4UnPPQE+nNfLeKAxRgQxQjBDA4II5BBrrwGNq4GsqtN7brur7Hdl2Pq5diFXpPbddGtLpn6n/tSuknwA8VsrblNrxt5H4H0r8r1GMZ4//VX1jpv7S9r48/Zt8R+EfEt2lv4jtbMQ2s0jc3qKMAngDeAMHseD3wPk/pj245+le9xDiaeMnSrU3dOP3avRroz6LifGUcdVpV6LunHbqnd6NdGN2/7Ro2/7Ro+b2o+b2r5A+LPqn/gnn/yVTWv+wef/AEIV+hf/ACy/Cvz1/wCCen/JVNZ/7B3/ALNX6Fp90V+xcO/8i+Hq/wAz904U/wCRXD1Z41+1J8LP+FqfCrVrO2t431m0UXdkzD5i6HO0H/aAI/GvyzJ3A46Y4wc/rX7WXCh1YEAg8EHvX5YftNfA5fgb46jtLIyyaDqCmeymkH3SPvxk+oJB+hFeNxPgnKMcVBbaP06P8Xc8HjDL+ZQxsFotJW/B/i0/VHj7DJxkg+lLGNr7icgcnPcd6QZHXk+ucmivzfZn5T6nvH7JPxsf4V+PYdLvpWXQdZlSKc7vlikOQrewJIBPGAK/TZCCM4xwDX4pKSrhkJRgcgjqCOhHuK/WH4BfGnS/jV4Oj1S0ZYr6ALFfWucmKXGTjgZHXBx2NfpXDOO9pTlhqj1Wq9Oq+Vl95+s8H5i5wng6j1VnFeWt0vTR/eVf2ofh7c/Er4O65pNlGJb9EFzbof43QhtoPYkAj8a/KrAJOFb5SVIbIIPQgg9wa/a2VdyN3UjmvmP4q/sNeFfHmqXeq6NfT+GdRnG9ooIxJbO/qUJBGe5BHriu3PcoqY9xq0Lcy0abtdeR28S5FVzJxr4a3OlZp6XXSz7+R+ddFfV93/wTv8YrKRD4i0qaLHDSRuh/EZP86h/4d5eOv+g5o3/kT/Cvhv7CzBb0n96/zPzp8P5ov+XL/D/M+VqK+qP+Hefjn/oO6N/5E/wpf+Henjj/AKDuj/k/+FH9hZh/z6f3r/MP9X80/wCfD/D/ADPlYsB3ox1/Wvqn/h3n443L/wATzRuO/wA+f5V5H8ZvgjcfBWe2stW13Tr3VZ/m+xWe4uE5+Yk8Dp0IrGtlOMoQdSrBpLdtr/M56+T47C03Vr0nFLq7W/O55kRnvik2/wC0aAMdM/Q0vNeNseMCplgM+3Nepfsz+BW8ffG/w1pktqbjTYpzdXbldyKsatIoPblkAweua8vAcnCK0jk4VVGSxPAAHcnpX6PfsWfBcfDzwBHrupW7Jr2tfv2Ei4aCLkIv1IyT0+9jtX0WR4J4zFxbXuxab7aNO3zPqOHsuePxsbr3ItNvppZpfN2+Vz6Jto/KYKOmMAAYH0/CrtJgUtfsp+9le/8A+PSb/cb+Vfjn8Rf+R81//r5P8q/Yy/8A+PSb/cb+Vfjp8Rv+R913/r5P8q+C4r/h0vV/ofmvGv8ABo+r/JHN7f8AaNG0+po+b2pefavzU/JujPrb/gnXx478Ud/9Cj/9Cavv5a+Af+Cdf/I+eKP+vKP/ANCavv5a/Y+Hv+RdD5/mfu3C3/Iqp+r/ADMjxd/yLeqf9e0n/oJr8dvFg/4qfWO3+mzdP981+xPi7/kW9U/69pP/AEE1+O/izP8Awk+sf9fs3X/fNeJxZ8FL1f5Hz/Gv8Oj6v8jJ2/7RoAwepNHze1KM5GcV+cH5Sej/ALOgH/C8vBfYf2ig/Rq/SP44/GPSfgr4PbWtUV5Wmk+zWtvEMtJMVZlHsMKck1+ZHwa8RWXhL4peHdZ1GUwWNhdieViM5AU9PcnArqv2hP2g9S+OviCOV7d9O0Sy3CzsGJJyeDI5wPmI4HYD6mvs8szKOX5fUs/fb0XyWr8kj7vJ82hlWWVeV/vG/dW/RavyX5nm3ibxFf8Ai/XL7WtUvJLrUbyVpXd2J2AnIUewGBgegrL47DA7Cik+b2r4+c5VZOUnqz4mpUlVk5zbberbHYyeKUOExvBKlgoAHLE8AD3zimgAg5JGBk4PX1r64/Y5/Zo/4SWdvGPi7S2OlxKj6TbXC/Lck7t0jKTkBcDAIwd2e1ehl+BqZhWVKn832Xf+up6GW5fVzLEKhSW+76JdW3+R6v8AsY/ASb4ceHZPE2tWqDXtXRTGpGWtYOSFJ7E5BPfoD0r6ghBAO78qZbxrHEFRQqDAAHGAKn4I4PNftGFw1PCUY0aey/q5/QOCwlPA4eOHpLRfi+rfqPpr9KdTX6V1nafnf/wUO/5LBon/AGCR/wCjGr5br6k/4KHf8lg0T/sEj/0Y1fLdfimef8jGr6/ofz9xB/yM63qIF9zSnoaT5valPQ14Z86fo3/wT6/5IM//AGFJv/QI6+mh0r5l/wCCfX/JBn/7Ck3/AKBHX00OlfumWf7nS/wr8j+jcp/3Ch/hX5C01m20pIFQStv6D6HPevTPWEm2gAdG/Ovjv9s39pdNGtrjwJ4XvpI9WfH9oXtuxHkoesQI/iOOcdAR61uftW/tXXHw1uIfDPhF7ebW54/Mub9mDpaKSyhQO7Eg8EjAwe4r4E1PULrV7+4v764e7vLmRpZppTlncnJJPv8AyxXw+eZ1GjF4bDv33o2ui7J9z864j4ghRg8Hhn770bXRdk+/psV5GMjmRnaRnJLM5yxJ6kk8kn1NNPPtR9MUnze1fmLbk7s/IW23d7ht/wBo0bf9o0vPtQP84pXATyz6njrRt/2jVt7G6t7W3u54JY7W5LLFcFSEkKnBCN0JHQgdDVXDe1aSi1uU4uOj/r+unkJt/wBo0vSk+b2o+b2qCSWOVoWSSGWSKZGykkR2svuDkEc9cV+iH7I37R1j4+8N6T4S1nUHk8YWMDiSSccXiKx2shPVgpUEdcgnnrX51jgEVq+G/EV/4T1yy1nSbtrHU7KQSQzjnb3II7g9CD1r38pzOeX1bvWDsmvLuvNH0WTZvUyqvzrWD0a3utNfVLb/AIJ+y8bHbnODU4wRg18/fs2ftNab8X9At7TWbm10/wAXRFkmsVO0TDJKvGD1+XGRk4OfavfY5FcHA4r9foYiniaaqUndP+tfPyP3bC4mli6SrUXdO3y02a6PyJ6KKK6DrCiiigAooooAKKKKACiiigAooooAKKKKACiiigAooooAKKKKACiiigBr/cNfkB8Wv+SkeIf+vk/yFfr+/wBw1+QHxa/5KR4h/wCvk/yFeHmm0PV/kfmfHP8AutL1ZyVFFFeGfjAUUUUAFFFFACnrXY/Bf/ksPgb/ALDtl/6OSuOPWux+C/8AyWHwN/2HbL/0clVD4l6r80ejl/8AvlH/ABR/NH69L2p1NXtTq+2P6iWwUUUUAIelfCv/AAUY/wCRh8F/9e9z/OOvuo9K+Ff+CjH/ACMPgv8A697n+cdeZmP+7v1X5o+S4q/5FFX5fmj48ooor5o/nkKKKKACpInlgmjmgkaGeNg0cqcMjA8EH1FM60Y5oepcZOL5ouzP0r/Za/aQsPjPpB0W5je38TaXbKbxTykoGB5iH0ORnPTPevfVGK/HLwh4z1vwDr9trWg3z2N/BwsgPDJxlSO4IHQjGQD2r9SPgZ8YdJ+Mvgu11jT5cXaqI7y0Y/PBKByCPTuD3BFfQ4LFe1Xspv3lt5r/AD7n71w3nqzOl7Gs/wB7Fa+a7+q6o9KopO9LXrn2wUUUUAeQ/tF/BK3+O3gFtF+0tZXtrP8AbLSdBwJQjKAf9k7jnHoKvfs66LfeG/g34b0vU7c2+oWULQTRE5w6uQcH04yPavTQo9MUBQOgArFUoqp7VLW1jj+q01iPrKXvNWfmrpr7rCoMKKdSdKWtjsCiiigD5k/4KA/8kXtv+whH/wCgtX53t0P4V+iH/BQH/ki9t/2EI/8A0Fq/O9uh/CvmMw/j/JfqfhnGf/Ix/wC3UMooorzj8/CiiigAooooAUdDXd/Ab/ktfgn/ALCcX864QdDXd/Ab/ktfgn/sJxfzq6fxx9V+Z34D/eqX+Jfmj9b4+hp9Mj6Gn19sz+pXuNbpX5f/ALb3/JyOv/8AXraf+iEr9QG6V+X/AO29/wAnI6//ANetp/6ISvkuJv8AcP8At5fkz4PjL/kXR/xr8pHhfakyfT9aXoKTd7GvyU/FxCTg8dvWv1B/Yr/5Nw8KfS4/9HyV+Xxbg8Hp6V+oP7Ff/JuHhT6XH/o+SvtOFv8Aeqn+F/mj77gz/fp/4X+aPdl+6KWkX7opa/Uj9lCmSDK/Sn0UAeA/tSfs9Wvxj8KS3lhFFD4nsV822mK/NMFB/dk+hGcehxX5nXttLZ3EtvPH5c8LtHIhGCrA4IP0IIr9qJBlumccivjT9tT9m7UvEN6njbwrp8c1wkZGqW0QxJKFGRIB3IAIOOTx1xXxWf5Q8RH6zQXvLdLqu/qvxPz3ifI/rMHi8OvfW6XVd/VfifDZyB0zSc+n6091CngEc4IIwcj2pvSvy56OyPx7YDyKKTd7Gjd7GjoAZPp+tGT6frRu9jRu9jSA+qf+Cef/ACVTWf8AsH/+zV+hifdFfnn/AME8/wDkqms/9g//ANmr9DE+6K/YuHf+RfD1f5n7pwp/yK4erEK4HFeTftGfBq2+MvgGbS5HWC+tibizmYZxKFOAT2B74r1rHFMkG4+/avfq0oVoOnUV09D6itRp4inKlVV4tWZ+KLsrDKnK9Meh7imcgcDNfRv7ZfwPPw28aR6/ptqsWh607MfLXCx3GSxUjoMgnH0NfOTDAUjoBg471+HY3CVMJXlRqbr8V0fzP50x+DqYHESw9S911fVdH8wBbcB0PY5/WvcP2TfjHb/CH4mmTUmYaNq0P2e5A/gcEbHx9SR+NeHZz2P5U8fNwRkemM1GExM8JXjWhunf/NfMzweKqYGvDEU94u/quq+Z+1UPOMAYycY/WrBxmvCv2VfjXp3xU8A2Vo11v8Q6Zbxw38Uh/eEj5Q59QcZz717j15zX7nQrQr01Vpu6auv8j+jcNiKeKpRrU3dNXX+RNRUe4/5NG4/5NbnSSU3+Om7j/k0xnz68daAMbxV4htvCXhzVNbvmxZadbyXUpHXailj/ACr8kPiT43uviT471nxNdAq+oTmSONjny4+iLn2UD8a+qf28PjRZalBY+BtGvhcFJPP1LyJMqNpwkbEdTnJIPTAr4wbhskHB/HPrX5jxLmCrVFhab0jq/N9vkj8e4tzL29ZYOm/dhq/N22+S/UaPl6DP40qZLj5cHIxzSDHpj8KVOWAA3E8BQOSfT8a+ISbZ+e6t2PX/ANkzwnH41+PHh60lVpLWy331wpXKgJGxT25bYK/U6IBNoUbRjIH9K8V/ZQ+E4+F/ws0qO+gRNbv1N3ePt+cF+QhPsMAj1Fe38Aj1r9myXAvBYVKXxS1fldLT5H75w9l7y/BJTfvy1florL5fqSUUUV759OV7/wD49Jv9xv5V+OfxF/5HzX/+vk/yr9jL/wD49Jv9xv5V+OfxF/5HzX/+vk/yr4Liv+HS9X+h+a8a/wAGj6v8kc5k+n60ZPp+tG72NGfr+Vfm5+TdGfW//BOs58eeJ+3+hR/+hNX38tfAP/BOvnx34n/68ov/AEJq+/lr9i4e/wCRdD5/mfu3C3/Iqp+r/MyPF3/It6p/17Sf+gmvx38Wf8jPrHf/AE2b/wBDNfsR4u/5FvVP+vaT/wBBNfjv4sOfE+sf9fs3T/fNeHxZ8FL1f5Hz/Gv8Oj6v8jJyfT9aMn0/Wjd7Gjd7Gvzc/KQBPp+tP3HPT9aZu9jRu9jRYBQSe360BSxwOpFB+bofyrtvhB8K9U+MHjaz8P6ahWNv3l3cnhYYQRuYn1OQAOpJ/GuijRniKip01dt2sb0aFTEVFSpptt2SXdnZ/swfAO5+Nvi+V3uY4dD0aWCXUSwJaQMWKIoxgk+Wc56DHWv0+06zhsbWOCGNYoYlCJGowFA4AFYfw78AaJ8OfDVro2h2UdpZwjJCDl2PVifWuo2gHOMV+zZXl0MuoqC1k9W+7/yXT7z98yXKoZVhlDeb1k+78vJdPvHL0FLRRXsn0AU1+lOpr9KAPzv/AOCh3/JYNE/7BI/9GNXy3X1J/wAFDv8AksGif9gkf+jGr5b6V+KZ5/yMavr+h/P3EH/IzreomT6frSnoaTd7H8qU9DXhnzp+jf8AwT6/5IM//YUm/wDQI6+mh0r5l/4J9f8AJBn/AOwpN/6BHX0wWKjPX2FfumWf7nS/wr8j+jcp/wBwof4V+RDOwGeeeBn0r5n/AGr/ANpwfCUN4T0q1efxFqFj5q3RbCWqMWUNkclvlYgD0HrWp+158e4vhb4Ol0bTLpo/FGqxlLcRn5reI9ZSew4IB656dK/Ny6uLi8nknup5bm5kbe80zlmYnuSeTXgZ5nP1NPD0H77Wr7X/AFPl+Is/WCTwuHf7xrV9En09ba+W4yWSSeV5ZZWnlclnlcks5PUknuajJI6ClLc9CaTd7Gvyxtybk92fjkpOTbbu2GT6frSjJPT9aQHJ7j605VJOR078Zz9KgkXGScg/hXpPwM+CGsfG7xTHp1oDbaVG269viMCNBgkKO5IIA9Cak+BvwI1z41eJYrW2ie20aJg93qLqRGqg8qp7seRgdOc4xX6deAfAmm/Dzwjpnh3S4hHZ2UZRQO5JLMx9SSSSTzzX2mSZM8W1WrJqC1Xm9NPTuz7rh/IJY6SxGITVNPTpzPTReXn1ON1v9nTwprPwutfAklmi6daROttMEXzInYklhx1JYnivzc+Kvwz1T4P+Nr3w9q22V4MPFcqCEnjI+VgOucHkdiD1GCf19x8vA5964T4p/CjRPi54Zn0XW7ZJkb54piMPA/ZlI5Hoea+wzXJ6eOpL2aSnFWTtul0f6PpY+8znIaWYUl7G0ZxVl5pLZ/o+h+RbZ3HqeetNJbPT9a7D4rfDTUvhJ44vvDWqEyPbsDFcBSEnjIDKynjJwQCB0II7Vx/fnn6ivyStRnQm6c1ZptP1R+H16M8PUdKorNNpp9GtBMn0/Wl+tITjsfwFG72NYIxLenXtzpt7Be2VxJaXltIssc8ZwUYEEHI56iv07/Zr/aAsfjb4Vb90bPXtOCx39qTkMxH+sQ91bB985HvX5dAk+uPSrGn393pV3Hd2NzLZ3kLB4p4WIZWByDkcivocozWeXVLNXi91+q8z6XJc5qZTVdleDtdXte2zT6W/I/aaCQux5G3sPSpS2M8ZNeUfs9fGDTfit4B0u4j1FLvWbe0hTUoujpOFw7EehYEg+hr1VcnBxk9q/YKVSNaCqQd01dH7tQrwxFNVabumrq2pLRRRWp0BRRRQAUUUUAFFFFABRRRQAUUUUAFFFFABRRRQAUUUUAFFFFADX+4a/ID4tf8AJSPEP/Xyf5Cv1/f7hr8gPi1/yUjxD/18n+Qrw802h6v8j8z45/3Wl6s5KiiivDPxgKKKKACiiigBT1rsfgv/AMlh8Df9h2y/9HJXHHrXY/Bf/ksPgb/sO2X/AKOSqh8S9V+aPRy//fKP+KP5o/Xpe1Opq9qdX2x/US2CiiigBD0r4V/4KMf8jD4L/wCve5/nHX3UelfCv/BRj/kYfBf/AF73P8468zMf93fqvzR8lxV/yKKvy/NHx5RRRXzR/PIUUUUAFFFFADlbbhvSvTv2fvjde/A/xsdVjg+26VeotvfWhfbhM/60HBwy8nGMEEj0I8w60qZ3D6jj8aak4tSi7NbPsduExVXB1o16LtKOq/y+Z+xfg3xppPjzQrbWNFvYr+xnGVlibcM9x9RW8celfmz+yD8e4vhF4rn0fWHdPDmsuo35+W0nzgMR2Ug8n2B7V+kUc6zbChDBhuBHcV9ThcSsRC+zW6P6JybNaebYVVo6SWkl2f8Ak+hPRRRXce6FFFFABRRRQAUUUUAfMX/BQRivwXtPfUYwf++Wr88Cciv0O/4KC/8AJF7P/sJR/wDoDV+eB/lXzGYfx/kv1PwnjJ/8KT/woSiiivOPggooooAKKKKAFHQ13fwG/wCS1+Cf+wnF/OuEHQ13fwG/5LX4J/7CcX86un8cfVfmd+A/3ql/iX5o/W+PoafTI+hp9fbM/qV7jG4r8w/231H/AA0fr/vbWg/8gJX6dyYAzX5j/twRsP2jNbJGA9raMPceSo/mDXyPE9/qKt/MvyZ8Jxgr5cn2kvydvxPBc4/Ck3D1paK/JfU/FhpcYPPav1B/Yu4/Zx8J/S4/9HyV+X56H09a/UL9jKJ4v2c/CSumCRcHB9DPIR+lfa8Kq+Jqf4X+aPv+DP8Afqn+F/mj3Rfuilpq8KKdX6kfsgUUUUAIRmq12gKbCAVIIweh9qtUx03EH0B60A9T81f2tP2bp/hNrTeJNOuJb7w/qt3NJJ+4wLFmbcEJBOVOSASBjHfNfO+Rtzz7fT1z/Sv2b8RaFZa/pNxp9/bRXdrOpV4pVDA59jX5SfHD4Val8JfH+paPd2kkWntcO+n3JGY5ISSYwCONwXAI9Qa/L+IMpjh5fWKC91vVdn39GfjnE2SLBz+tYdPkk9Uls97+j1PPdw9aNw9aXquRzzg+1FfEbH5/sJuHrRuHrS0UgPqj/gnof+Lqa0f+ocf/AEKv0MT7or8/f+Cd1jJL4/8AEV2BmOGySNj7sxIH/jpr9Ak+6PpX7Hw9/wAi+Hq/zP3XhVWyuHq/zHUxxnBp9FfSn1x5p8ePhND8Zvh3f+HpZzaXD4ltrgJuMcqnIOMjIPIPI4Nfk5eWc+n3dxaXMTQXMEjRyROMFHUkEEHpgg8Gv2olHHXFfnd+2v8AA298JeM7zxzYxKdD1aRPtG3rFORg5A7HAOfU18TxJgPa0liqa1jo/Nf8D9T864uy321JYymryjo/To36a/efMHQUK4DcGnFSo5GMcHPY00nPevy93T1PyE7X4R/FzXPgx4ol1vQVt3uJoTBLFcoWjdSQckAg5BAwc17M3/BQL4if8+eh+3+jyf8AxdfMgAHXFJ1716VHMsXh4ezpVGl5HrUM1xuFh7OhVaje9ltqfTf/AA8D+Iv/AD46H/34k/8Ai6P+HgfxF/58dD/78Sf/ABdfMmB60YHrW/8AbOP/AOfr/A6P7dzP/n/L7z6a/wCHgXxF/wCfHQ/+/En/AMXTZv2/viNLGyiz0VMgjIgfIyMZHz18z4HrR+NH9s4//n6/wD+3cz/5/wAvvX+Ravr+fU9Rvb+6fzbq8mM8zn+JycmquQPbPNLSE8148pOTbk7tnhyk5tyk7t7sXIx+IHFeyfss/CD/AIW38UbeKd5ItJ0ho766kVMhyrgrETkY3EHPU4B45yPILWCS5uY4oELzSMERByWJIAAHqSQK/UP9l/4IJ8FPAyWsziXVNQ23N44UfK+B8ue4BJ5r6bIcv+u4lTmvcjZvzfRfgfV8OZZ/aGLUpq8IWb830XzseyW8Qj2AcY4xjpxVqmBT1Prmn1+vn7qFFFFAyvfH/RJv9xv5V+OfxF/5HzX/APr5P8q/Yy+P+iyjHJQgflX48fE+1ls/iHr8UyGORbo5Uj1Ax/MV8JxWm6VL1f6H5txr/Bper/JHL7h60bh60ufpSc56ZHqK/M0fkp9b/wDBOs/8V34oI/58o/8A0Jq+/V5r4H/4J2QSHxh4rnC/IlpCjE9ASWwP0Nfe6HNfsfD3/Iuh8/zP3bhbTKqfq/zMrxbz4b1TnH+jSf8AoJr8dvFbAeKNZ5yPts3OP9s1+yOt2Z1DSrq1TAaaNowT0yQetfj38Q9Mk0bx34jspRiWDUJ1YYxzvJB+mCK8biuLdOk7aXf5Hz/GqfJRfS7++xzu4etG4etG6lr80PykTcPWnAZNIASQB1PAp+wiQJglyQoUDncegHqT6CqSb2KScnZbml4b8L6r4r1a20vRrCbUL64IEcMSknHcnHYd6/TX9mz4AWPwT8KPG8v2zXNQ2zX1yU24OOEUZOAo4znk88dB5t+xz+zXqPw1uZPGeuyiLVNRsfIi0/HNvGzKx3H+98q8duRX1dGmxQAcDsK/VsiymOEp/WKq997J9F/mz9n4ayRYKmsViE1UeyfRP9X1JEXaOuacOlIBgetKOlfYH3QtFFFABTJOn40+mSHAoA/PL/gocP8Ai72iH/qEj/0Y1fLPSvqn/gohDIPir4fm2nbLpZVc+qyHP/oQ/OvlavxXPE1mNX1X5I/n3iBNZpXv3/RCbh60p6GijqGzxwTyPQV4dj54/Rr/AIJ9f8kGf/sJzf8AoEdfSV1cLbQySuQixruJPoOtfOP7Adu9v8BI2YfLNqE0kZPdcIM/mDXs/wAUrm5tPAWtS2q5mW3YKPw5/TNfuGAlyYGnLqop/gf0Rl0/Z5ZSn2gn9yufmD+0L8Rpvil8Wte1x8LAkn2C1QNuHkRMQCDgfeJJ/wCBY7V5wzkk7j+dOJOSTySxJz6kmm59TX4xiasq1WVSW7bb+8/AcTWliK06s3dttv1bE3D1oznpS0YyP0zXLucou0MvPXsM16V8E/gZr3xs1yWy0zNpZQEfadRaPekOcYGMgFsZOMg/nWZ8KPg/4j+L+uppmh2bPGsgW5vX4itlPJLHuccgDrx61+nPwa+EOlfBzwZDoOkt5y7vOnmdRumkKqpY49dor6/JsmeNkqtdNU18rvy8u59tw/kMswqKvXTVJfK77J9u7+Rc+FPwz0/4U+BtL8Nac7ywWasTPIoDyuzFnY49WYnHYcV2qx4HvTY1KqASTjvUua/VIQjTioxVkla3Y/aadONOChBWSSSXZLZC1GYgRjtUlFaGh5P8cvgVovxx8MNYag5sr6B/MtNQjjDvDIM4JGRuBzyMjg9RX5o/FT4a6h8JfG2o+G9UYyTWwRorhYyi3KMoYMgJPAJIOCcEEdq/YB1zu68jFeWfHb4F6P8AGzwlcafepFbapGhNlqCxgyQNnI567SRgjIyM18zm+UQx8HOmrVFs+67P9GfIZ9kVPMqftaStVWz7rs/Psz8oiMN149aQsBXR+OvBOq/DrxPf6BrsP2fULNhuPVZAeQynupBGPy7GucBwfUZ65r8kqU5U5uM0007Pufh9SnKlJwmmmnZp9GG4etAkABwTz1paKx2Mz2X9kr4mS/DP4x2LkI9jrTCyu97bQu4ja4PTIYAdOhNfqTE4lIKsGTGQR3Br8WdKZ49TsnjyZUnjZMdchgRX7FfD2SSbwR4ekmGJH0+Bmz1yYwTmv0/hfETqUJ0paqL0+f8Awx+u8G4qdShUoSd1Fpryv0/A6SiiivuD9GCiiigAooooAKKKKACiiigAooooAKKKKACiiigAooooAKKKKAGv9w1+QHxa/wCSkeIf+vk/yFfr+/3DX5AfFv8A5KT4g/6+f6CvDzTaHq/yPzPjn/daXqzkqKKK8M/GAooooAKKKKAFPWux+C//ACWHwN/2HbL/ANHJXHHrXY/Bf/ksPgb/ALDtl/6OSqh8S9V+aPRy/wD3yj/ij+aP15XqPxp9NHU06vtj+ogooooAQ9DXwr/wUY/5GHwX/wBe9z/OOvupuhr4V/4KLDPiLwZ/173P84683Mf93fqvzR8lxV/yKKvy/NHx5RRRXzJ/PIUUUUAFFFFABQDjtn2oooAd94FTkrjHP619nfsP/HfVLzWJfAviC/SWzitS2kyzMN2FYAxbv4iAeB6Ka+MVfbz6c1Na3k1jc29zbTyW9xA4kjliO1lI7g8/litaVR0aiqR6bruux7+T5nPKsVGvH4dmu66/PsftCkgbaQDg96cBjmvmf9k79p+f4uPN4Z1y3SPxFYW/nefACsVzCpVdwBJIbLDIzjOenSvpYyAqBnOfQV9dSqxrQU4bM/obB4yjjqMcRQd4v+rPzJaKKK1O4KKKKACiiigD5h/4KCf8kXs/+wlH/wCgtX54Hq31r9Dv+Cgxx8F7P/sJR/8AoLV+eRGBnPU18xmH8f5L9T8J4y/5Gb/wobRRRXnHwQUUUUAFFFFACjoa7v4Df8lr8E/9hOL+dcIOhru/gN/yWvwT/wBhOL+dXT+OPqvzO/Af71S/xL80frfH0NPpidKfX2zP6le5G618aft2fA/V/FF3aeNdDtDd/YbYw38cXLlFOVIXqQMknHavstskDHX3qG4tUuAQwDLggqRwQeoNcGMwkMbRdCps/wAH3PNzDA08ww8sPU2f4Poz8U9pxnHB6E8ZoxjsM+3OK/RrxT+wN8PvEuu3upxXusaRJdyNJJBZzR+UGJySFZCRzzjOKxk/4J0+DuPM8Ta8yjoEaBT+flmvzWfDOOjNqKTXe9j8iqcJZlGfLBJrvdLT0Z8JeGfDGp+MtZstI0izlvr26lWNUhXOwE4yx6ADk5PYV+vHw78HxeCPBOjaDCoSKwtlhwPUck/iSTXLfB79n3wv8E9KltdDjnuJpn3zXt+yyTuewJCqAAOOAK9PHTAr7PJsp/s2LlN3nLe2y8kff5BkbymEp1JXnJJO2yXZdx46UtFFfSn14UUUUAFFFFAEMkQcjNcl8Sfh1o/xM8KXuh61arc206EBsfNE3ZlPUEcc12BGfrTXQt+dRKKnFxkrpkThGpFwmrpqzT6o/Iv4sfB3xB8JfEl9p2safOtkkjfZdSCFoZoyTtO8DAJGAQcHNcH2BHPGeK/ZfxT4P0zxlo9xperWkd5YzoY3icdQeuD2r52v/wDgnt8Pbu5lmtdU17T1ck+TBPEUXJ6DdGT+tfnWN4Yqc7lhWmnrZvbyvY/Kcw4Pqqo54Jpxbbs3ZryWmqPzx29OnIzSrG7AYBOSAAASST0AHU59q/QBf+CdXhAPlvE+usvoPIB/PyzXV+A/2Hvh54H1221gnUdZv7ZxJC+ozKVRh0IVVUH8c1wUeGcZOaVS0V1d0/uSPLocI5jOSVVKKvq7309EVP2LfhPffDf4ay3mq2ZtNV1mRbp1c/OsW392rDseScdRnB5r6RU4AqEQ/KF7H8vyqwMAV+nYbDxwtKNKGyR+xYTDQwdCGHp7RVhaKKK6TrIpFL4xjI9a5j4h+CrPx54M1fQdQhWa2vrdoiG7Ejgj0IOCD7V1Wc5psiFhgGoklKLi1dNWInFTi4yWjVvkz8Xtb0LUPDeqX2karA9vqNlIYp436hh1I9c9j6YrO2/9Mz+Vfpl8Uv2MPB/xY8ZXXiXUNS1fTb66VVmjsJYhG5UYDYaNiDjGcGuS/wCHc/gP/oYvEv8A3+g/+NV+X1uGsX7WXs7ON9Ndbf5n43X4RxyqyVGzjd2bdm10uu5+fW0/3D+VG0/3D+VfoN/w7m8Bf9DF4l/7/wBv/wDGqP8Ah3N4C/6GLxL/AN/7f/41WP8Aqzjuy+8w/wBUcy/u/efnztP9w/lRtP8AcP5V+g3/AA7m8Bf9DF4l/wC/9v8A/GqP+Hc3gL/oYvEv/f8At/8A41R/qzjuy+8P9Ucy/u/efnztP9w/lRtP9w/lX6Df8O5vAX/QxeJf+/8Ab/8Axqj/AIdzeAv+hi8S/wDf+3/+NUf6s47svvD/AFRzL+795+fO0/3D+VAU8cYyelfoN/w7m8Bf9DF4l/7/ANv/APGqB/wTm8BqcjxD4kz7zwf/ABqp/wBWcf2X3j/1RzLtH7z57/Y5+Dz/ABG+JEWr3MTnTNAmiui+cKZ1YMi+/Qkj3FfpZEu1iDzjpXn3wY+CGh/BHwu+i6JNd3UMtwbqSe9dWldz6lVUYAAA4r0Qgg8niv0LKcB/Z+GVOXxbv1/4bQ/TckyxZXhI0n8T1k/P/htCWiiivZPoAooooAhckEZGRX50ft1/Debw58TofEcFm66XrEKq86AlRcJkFSexK4xnrziv0ZCZNcn8SPhppHxU8JXvhzXI3ksLoDJiO2SMghgynsQQDzke1eRmeBWYYd0tnun2a/zPDznLlmmFdHZrVPzW3y7n49CPjp+lIEYr8qtzwAvJJ7AD1PFfd2q/8E5NDkZf7M8Xajbx/wAQvIY5j+aha6j4ffsGeEvB2u6brF7rOpaxd2UglW3cRpbuwzt3KFLcHBGGHIGcjNfnlPhvHOolJJK+91t+f4H5bT4TzKVRRlFJXV3daLrom2x37Dfwr1DwH8Nr7UtWsJNP1TWLgSeVcKQ6xKMIGB6clj9CK+mo1wKasWwADGOmAKep+Xrk1+o4bDxwtGNKGyVj9hweFhgqEMPT2irCPkcivgD9uX4K32l+Mf8AhNtI0ya40vUIwl+bZS3kzIPvsByFKgc9M9eor9ACd/4VVvNPhvreSG4RZYZFKujjII9CK58fgoY+g6M9OqfZnNmmXU80wzoTduqfZn4q5U9HU/Q5owBz0x7Gv008W/sPfDDxZeNdmwu9MuHYs72M+3cT2wwIx9MVgwf8E9PhpFJue61u5X/nnLdJt/HCA1+ey4XxadoyVu93/kfls+DsepWjKLXrb8LH576Po9/4g1GCx0u0m1G9mIEdvboWdjn0AyB05PFfcP7I37LF74PvLjxT4002KLUmXy7GwuNr+QMgmQgZAfIAB6gZr374Z/s/+DPhIrHw5pSWs7DDTuxdyPx47dhXoaxYJ7DHWvo8r4fp4KSrVnzTWy6L/M+sybhiGBmq+JalNbJbLz11bQixkd/oe9TjoKWivsOlj7wKKKKACiiigApjglflxn3p9FAHzP8Atp/BTUPid4KtNV0e0+1a1ojO8cMf35Yn271A7nKggd8etfnLNby287wSxvHMhKvG6lWUjqCDyMV+1rxhu34V4/8AFH9lbwJ8Wb+K+1aymgvUUr59lJ5ZYE55BBB/Kvj83yL6/P21J2nZJp7O3W/c+Fz3hx5lUeJw7Sm0k09nbRP1sflfhVPPHf8Aya634bfDLXPit4osdI0SwmuUmlVJ7lUPlwJkFi79Bgds5ORgc19z2/8AwT1+GUcm+a41q6AORHLcpt/RAf1r2z4cfCjw98KtD/snw3ZLZWZkMrAkszOcDJY+wHHtXj4Ther7VPESXKtdOvl/wT57BcHV/ap4uS5Vq0ndvy2t8y74C8E6f8PPC2n6DpMC29paR7Qi9Mnkn8SSa2ryBLi1kilAMcilHB6EHNW8c/0ppiDqQeh7V+iqKjHlitErH6xGEYRUIqyStY/I746fDm6+GHxQ1vRJ7doITO1zZkg7ZIGYlSp74zg46EGuAZTk5HTjpX6w/Gj9nvwx8crC2h10XNtPatugvbJ1SWMHqPmVgQeeCDXgusf8E5tLM4/svxjeW9tj7l3bLK2fqpX+VfmmP4cxDrSnhknFu61St/wOx+Q5lwpi1iJTwiUoN3Suk1fpr26HwwYz6Z+gruPhN8HfEPxh8QRabodnI1uHAudQxiGBO5LHjPoOT7V9g6P/AME6vCkSAar4n1i8OclbURQoR75Rj+RFfRnw7+GWh/C7wzFoWgWottPjJOGOWZu5J7mtMDw1Vc1PFaJdE7t/5GmW8I4iVVSxtoxW6TTb+7RGX8F/hLpfwe8EW+haWpzuM1zcE5aaYgAsfwAA9gK7+OMpSIuzp2qQMGr9Fp040oqMFZJWR+sUqcKMFTppJJWS8kOooorU1CiiigAqKSLcDjGTUtFAHkfx0+BGhfGrw79j1OPydSt8taX8XEkTEDjOOQe45FfmZ8QPh7rXwy8SXWha7avBdW77RKFPlzAgEMjdDkEH2JPSv2KdS3t6VwnxQ+DPhv4v6AdK8Q2jPFkPHNAwSWJh0Ktg8/UEe1fNZtk1PMI88NJrr0fk+p8hnmQU8zj7WlaNRdej8nbX5n5EbeScDHqaVVznGMeoFfeus/8ABOfw7MT/AGX4r1W2wOBdxxS4P/AVXiq2kf8ABOPR4yf7S8X386E5Is4I4jj0ywavhv8AVzML25V63Vvzv+B+d/6qZpe3IvW6t+Lv+B83/su/DK5+JfxZ0lBaNNpWnSi6vZTkIoXkKT6lscd8H0r9UbSCOCCOKNQkcahVUdAAOMfhXHfDD4SaB8J/D0Oj6FAyQIoEk0x3SzN/ec4AJJyTgAZ6ADiu0AOf5V+h5Tlyy2h7Nu8nqz9RyPKllWG9m3eTd2/Pay8kTUUUV7Z9EFFFFABRRRQAUUUUAFFFFABRRRQAUUUUAFFFFABRRRQAUUUUANf7hr8gPi1/yUjxD/18n+Qr9f3+4a/ID4t/8lI8Q/8AXz/QV4eabQ9X+R+Z8c/7rS9WclRRRXhn4wFFFFABRRRQAvWuw+DTBPi94Hc9F1yyJJ/67IP61x/Y1a0rU7nQ9RtdSsm23lnMlxASM4dCGU/99AUJ8rT7WOvC1FRrwqPo0/uaZ+z6cE9+aecV518BfiVH8U/hho+u+ckt3JEEuwh+7MvDDHbkZ/GvROh+lfawmpxU1sz+oqVWNenGrB3TV18x1FFFWbDD0Jr4R/4KJXkT+KvBturgzRW1w7KDyAxQAke+D+Rr7k1S/g0zTrm8uZVht4I2kkkc4CgDJJNfk38aPifffFv4h6nrd3IGtgxgsgRgLAGJUj656+1ePmdRRpqn1b/Bas+F4wxVOll7oN+9Nq3ommzgqKKK+fPwYKKKKACiiigAooooAKcv3h0/Gm0UAdH4G8a6j8PvFem6/pkhS8sZhJhG2+bHn5oyfRhkc8Zwa/UD4M/GvQPjV4b/ALT0mZo7mIhLqxl+WaBvdeuD2PQ1+Tvc+td18Hvi1q3wb8Z2uvaUxlRyIb21b7s0BOSD/tDGQevauzC4l4aWusXuu3mvTqfb8OZ7LLKvsautOT18m+q8u5+t5YD0/OnfpXL+CfHuifEDR4NT0PUbfUbaRAxMLglCRnaw7Hnoa6heQK+rUlJXR+8wnGpFSi00+q1Q6iiimWFNZgvUgfWnVFMRxmgD5d/4KFX0EHwh0yCSULLNqabEzy2FOcDvjI/Ovz7bGMYAwT0r6z/4KEeLrPXfFPhbw7a3SynSo5rq4RHzh5NgQH3ARj+NfJR5LbfujH596+Txs1PEO2ysv6+bPwLiytGtmlRR+ykn9yf5sSiiiuM+JCiiigAooooAUdDXd/Ab/ktfgn/sJxfzrhB0Nd38Bf8AktXgn/sJxfzq6fxx9V+Z34D/AHql/iX5o/W+PoafTI+hp9fbM/qV7hRRRSEFFFFABRRRQAUUUUAFFFFABRRRQAUUUUAFFFFABRRRQAUUUUAFFFFABRRRQAUUUUAFFFFABRRRQAUUUUAFFFFABRRRQAUUUUAFFFFABRRRQBGY8knNPUYGKWigAooooAKKKKACiiigAooooAKKKKACiiigAooooAKKKKACiiigAooooAKKKKAEPQ00qT+FPooARRgYpaKKACiiigAooooAKKKKACiiigAooooATFLRRQAUUUUAFFFFABRRRQAUUUUAFFFFABRRRQAUUUUAFFFFABRRRQAUUUUAFFFFAEbDg4r8hvi+JE+JniNJEZGFycqw6ZA/+tX68seDivjb9rT9lXWvF/iNPFngmxhurmaMJf2JcKXK9HTOPmxxjPOOleTmNKdSEZQV2n89ex8RxXl1fMMJH2Cu4u9utnbb7j4fxnvRjFX9Y0W/8P3f2XVLC50y45xDeQtFJx1+VgD+lUCMda+dPwicJQfLJNPzVmJRRRQZBRRRQAU5Gwf7vP3qbS0AeqfA34/678C9UkfThDe6TeTJJe2c6sxKD7xjIICuRnkggkDIxX6JfCn42+Fvi7oyX+i6hH5hGHs5XUTRkdioPFfkyPl6GprK7m067S5tbiW0uE+7PBIUdT7EEGuvD4qpQ0Wq7P8AR9D7bJuJ8RlcfZVFz0+2zXo7H7RZ+XIH51jeJvFul+ENGutT1a9hsbO2Qu8kzhQBnA6+pIA9zX5Qx/GTx/Gvlx+Ntd2gcf6bIePrmsLWfE+s+I2L6rq19qbHBJu7lpMkdOCTXovM3bSGvmz66pxzQUH7Oi79LtW/I+iP2h/2yLn4m6ZqPhjw1af2f4duFCXF7Pn7TOAwbEeDgKcYOc5BI4r5kHABAwB0pDmjnHtXjTqTqy5qju/62PzHMcyxGZ1vbYh3eyXRLshKKKKg8kKKKKACiiigAooooAKKKKACiiigDvPhP8X/ABD8FPEE2r+HXtpJbi3+zzW12jSQSKWDZKqy4YYwDngE8c19pfBf9tzw948uBpfiaCLwzqqgfvXmBtpT/sscEZ7A5+tfnkeRQwDpg8jrg10UMRVw7tB6dnt/wD6rK+IsblloRfNBfZe3ye6P2a0zXLDWbZLiwvYLuF+VeGQMpHtirgO7nj0r8atH1/VfD7eZpep3unPnO60uGQ5Hrgit8fGbx+Bj/hNtdx6G+k/nmvUWZ6awd/Jn3NPjmi1epRafk1b8j9Ztb8Q6d4es3utRv7ext0BLSzyBQPzr5F+Pf7b32G5ufD/gSK1vGMbR3GsTMWiXdxiLaRlsZOScD0NfG+t+JNW8R7Tq+q3+qkEsPtlw8oBPUgMTissKQeAPpXJXzCpUXLTXKur3Z4+Y8Z18RB08HH2afVtN/wDAJrm4muZ5J7ieW7uJWLvNO252J9T6DoKhwQKXODzzSck4rzUrKx+cylKcnKTu2JRRRTMgooooAKKKdgEd89aADHfHFd58BEZ/jZ4JCAsTqkRAHbByT+AzXKaD4c1XxTdm10bTLzWLpRkwWFu0zj6hQSB7mvs79j/9mDUfDOqp408X6bJp+oxFo7GwnOHjBUfvGXsxywweR6CujD0p1ai5Vs02+it5n1GRZZiMbi6cqcXyppt2dlZp79z7LUADinVHEPl6kj3qSvsD+iwooooAKKKKACiiigAooooAKKKKACiiigAooooAKKKKACiiigAooooAKKKKACiiigAooooAKKKKACiiigAooooAKKKKACiiigAooooAKKKKACiiigAooooAKKKKACiiigAooooAKKKKACiiigAooooAKKKKACiiigAooooAKKKKACiiigAooooAKKKKACiiigAooooAKKKKACiiigAooooAKKKKACiiigAooooAKKKKACiiigAooooAKKKKACiiigAooooAKKKKACiiigAooooATrTdgVcAU+k60AecfFT4FeEvi7pklvrmnIbogmLUIAFniboCG7/Q5HtX5/8Axq/Zf8WfCbUbq4gsptY8MRAuNUReY16/Oo5AHc4Ar9RNoPvUFxZxXcEsM0aywyqUeNxkMCOQQeo9q4MRg6eI12fddfXv/Wp83muQ4TNYtzVp9JLf59/mfi8Mbd2dwzgY5pMV+i/xf/Yn8I+PpZ9T0R38M6yUYj7Kq/ZpXxx5iY6ZxkqQcZr4e+KXwb8U/B3UobbxLYiCKdykF3A++KUg9jgEdjyB1r56thqmH1mtO62/zPxzNOHcbljc5R5oL7S2+a3RxFFOK4+vQCk6VznyYlFFFABRRRQAu44/+tSUUUAFFFFABRRRQAUUUUAFFFFABRRRQAUUUUAFFFFABRRRQAde5/Ojp/8AqoooAUsT3NJRRQAUUUUAFFFFACiinCNmYBecjrmu9+EvwU8S/GfVpLTQIEWCA4uL24YrFFxn0JJ9h+dEbyajHVvojrw+GrYqoqVCLlJ7JHA4xyeB6k17Z8CP2W/EHxlnku7gzaHoEZCm8mgw8x4JCA4OMH72CM19W/Bb9jLwr4BghvtfSPxNriP5gmnj/cw8fdRDkHHXJyc+nAr6MitkhjVY1EagYCqMCvaoZc21Ks9O3X5s/Usp4N5Wq2YP/t1fq/0RwXwm+CHhT4O6ULXQbEJOw/fXsvzTSnjJZvw6DivQio9KRRhcDpS9a9uMVBWirI/UKVKnRgqdKKSWyQKoUYHSnUUVZsFFFFABRRRQAUUUUAFFFFABRRRQAUUUUAFFFFABRRRQAUUUUAFFFFABRRRQAUUUUAFFFFABRRRQAUUUUAFFFFABRRRQAUUUUAFFFFABRRRQAUUUUAFFFFABRRRQAUUUUAFFFFABRRRQAUUUUAFFFFABRRRQAUUUUAFFFFABRRRQAUUUUAFFFFABRRRQAUUUUAFFFFABRRRQAUUUUAFFFFABRRRQAUUUUAFFFFABRRRQAUUUUAFFFFABRRRQAUUUUAFFFFABRRRQAUUUUAFFFFABRRRQAUUUUARlfSsXxT4O0fxnpE+ma1ptvqVlKCGhuIww54yM9D6HtW43vQQKTSa1IlFSTUldM/P/AOOf7Ees+Hbq71bwLG+p6RGN7aVvL3A7kIDy2OwBJPTk18ya14e1Tw1eC01fTbzSbphuEF9A8LkeuGANfswI8gfXNcP8U/g94f8Ai5oE+ma1bAs6MsV1HxJCxHDKfUHBAPHFePWy6LvKk7Ps9j89zTg/D4lurhHyS7dH/l+J+SG0kn260nH0r2747fsseJfgykeoJN/b2iOxU3VvCQ0AHOZAMgD3z+FeJbgcbfm+leDOM6UuSasz8ixmBxGX1fZYiNmvu+T6jaKCMf56UUjzgooooAKKKKACiiigAooooAKKKKACiiigAooooAKKKKACiiigAooooAKKKKAClAyeoHuaQDPH86cijP7whABk7jj6Um7K7Ha4YI74/pWlofhnWfEtw0GjaTfavOnLRWFu8zL1xkKCRnBwfY16/wDs+fsu658arg3168uheHIWAa5eI+Zcg5/1eeO3XnHHFfe3wh+Bvhn4J6NNp/hy2dPtDiSeed90krAYBJ/HoK7sNhKle0npHu/0X/DH3WT8K4jMLVa/uU316v0X6s+UP2e/2KLrX2m1T4i2E9hZjC2+l+ZskfgHc+05A7YyDkHIr7U8KeC9G8D6NBpmh6dBpljCMLBAuB9T6n3PNbnl4Hqfenk47V9DRw1OgrQWvfqfsGW5ThcrpqFCOvVtK79WMEZB6/SngYFLRXUewFFFFABRRRQAUUUUAFFFFABRRRQAUUUUAFFFFABRRRQAUUUUAFFFFABRRRQAUUUUAFFFFABRRRQAUUUUAFFFFABRRRQAUUUUAFFFFABRRRQAUUUUAFFFFABRRRQAUUUUAFFFFABRRRQAUUUUAFFFFABRRRQAUUUUAFFFFABRRRQAUUUUAFFFFABRRRQAUUUUAFFFFABRRRQAUUUUAFFFFABRRRQAUUUUAFFFFABRRRQAUUUUAFFFFABRRRQAUUUUAFFFFABRRRQAUUUUAFFFFABRRRQAUUUUAFFFFABRRRQAUUUUAFFFFAFS6tI7xHjmjWaJxtZHGQR3BBr5w+Ln7EXhDxnb3d94dQ+G9aO6RBB/x6yueiumDgE9SuDznnpX0yTTGBbIPQ8VjUpQrLlmro4sXg8Pjqfs8RBSXn+j3XyPyW+J3wM8Y/Ca6kj1zSmFmnK31r+8t2X13Y457ECuAxg7TwfSv2O8UeE9M8ZaLd6Rq1nHe6fdRNFJE44IIxwexHUEV8U/H39iCbwxp7618PkvdWjj5k0dv3kuD1MZxk49ME14FfATpO9PWPbqv8/z9T8lznhCph71sDeUOqvdr001/M+Ruv5ZowPWr+s6FqHh6cQanp13plx/zyvbd4ZB+DAH9KolSO1eZr10PzicJU3yzTT7NWG0UpBHakoMgooooAKKKKACiiigAooooAKKKKACiiigAooooAKKKXB9P0oAPY0qggk9McnNaWheG9X8T3MlvoukX2s3SgM0FhbtM6jsSFBIHucV9S/s9fsT3HiS2XWviFbXmmQhgYtGPyPIBnmQ/eA4HHBrSlSqV3y01fz6fee5l+UYvM5qNCDs929EvmeEfCT4G+LfjRPcjw5ZxPaWzKk19cyeXCpbOADgliMEkDpxnGRX2x8HP2KfC3w8lOoa6/8AwlWqsi/JdxL9mgYZz5aYJ5yOWJPHGMmvc/CHgzRfAuljTdC06DTLJTnyoEwCfU+p963s4J4r6DD4CnStKprL8Pkv87n7LlPDGDy9KdRKdRdXqk/Jbferle0s47GOOKCNYoEGFjQAKoAwAAKt0UV6h9kFFFFABRRRQAUUUUAFFFFABRRRQAUUUUAFFFFABRRRQAUUUUAFFFFABRRRQAUUUUAFFFFABRRRQAUUUUAFFFFABRRRQAUUUUAFFFFABRRRQAUUUUAFFFFABRRRQAUUUUAFFFFABRRRQAUUUUAFFFFABRRRQAUUUUAFFFFABRRRQAUUUUAFFFFABRRRQAUUUUAFFFFABRRRQAUUUUAFFFFABRRRQAUUUUAFFFFABRRRQAUUUUAFFFFABRRRQAUUUUAFFFFABRRRQAUUUUAFFFFABRRRQAUUUUAFFFFABRRRQAUUUUAFFFFABRRRQAUUUUAFFFFABTX+7TqKAPOvi98FPD3xm8PSaXrMTRyZDxXdvhZYmBByCQQc4wQQeCa+EPjj+yX4n+EWmX2uR3cOteG7ZlJuUBW4jDMFG9AMHkgEg984FfpiAM/d5qrqOn22p2U1rdW8dzbyja8Uq5Vx6EGuHEYSniNWrS7nzma5FhM0i3UjadtJLRp9L9/mfjDGyvHvjbcp5GOnvmkGevev0S+Lf7EXhHxpbz3vhqP/AIRjWdpKJb4FrI3+3Hg49Mrjrnmviz4l/Azxl8IyH8SaQ1vZliiahbkSQNzxlh0J4wGA6187WwtWh8Suu61Xz7H41mfDmOy1uUo80P5lqvmt19x59RQAMdj7jpRXMnc+UCiiimAUUUUAFFFFABRRRQAUUUUAKKOe1O4GS3yrnOT0xXoPwr+A3jD4w3WzQdOZLEECTUbsGO3Xk9GIyxGDwoPvinFOcuWKbfkdmGwtbF1FSoRcpPolc89ZljheQ/dUcnrkemO/4V7t8DP2TvEfxgtpdQvLg+HtDQqBNNHvknzknYuRjAxyfUcda+nvg1+xV4U8B/ZtQ8RY8Sa2pDYmA+zREf3I+/1bPTjFfSFvbR2sYSKNY416BQABXr0MubfNX0XZP83/AJH6llHByVquY6/3U/zf+R578HvgX4X+C2my2vh+BxPcKgubqdt0sxUHBPbueAB1r0YDAp232o6Z4r3YxjCPLFWR+n0qVOhBU6cUktkloOoooqzYKKKKACiiigAooooAKKKKACiiigAooooAKKKKACiiigAooooAKKKKACiiigAooooAKKKKACiiigAooooAKKKKACiiigAooooAKKKKACiiigAooooAKKKKACiiigAooooAKKKKACiiigAooooAKKKKACiiigAooooAKKKKACiiigAooooAKKKKACiiigAooooAKKKKACiiigAooooAKKKKACiiigAooooAKKKKACiiigAooooAKKKKACiiigAooooAKKKKACiiigAooooAKKKKACiiigAooooAKKKKACiiigAooooAKKKKACiiigAooooAKKKKACiiigAooooAKQjIxS0UANK/lWN4q8K6Z4x0O70nV7VbuxuQFkifvggj9QK2QM0YoaTVmTKKknGS0Z8GfHH9huTw3pmo674HuLrUYoiH/sLyjJKQSARGRycZzggnAPNfKuqaDqfh+5Frq2m3ekXeM/Z76BoZB+DAHHuBX7NhAPauC+LXwc8P/GDw3daVrFsnmsuIL5YwZrdsg5UkewB9q8avl0ZXlS0fbo/8j89zXhDD4q9XCPklbbo3+l/uPyT+8aK95+Ln7HXjP4X2kmpWqr4k0ZCd0tmpE0QzgFo+SRzyQTj6V4NHhlLD5lBIznHIOCPr9a8KcZUny1FZ/wBbdz8ixmAxOAqezxEHF+ez9HsxKKKKk80KKKKACilH5fWg7QFJPBOBgEkn0A7n6Um0tyknLRB9Tir+jaBqfiK6+yaRpl5q971FtYwNNIR0yQoJwOOeAM17d8F/2PvFfxNntbzVoZPDvh518xricDzpRkYCJnIyCSCcYx0NfeXws+Dvhz4RaMun6DZLETzLcso82U+rEAZrvw+CqV3d6R7vf5L9T7vKOFcTjrVMRenDzWr9F0Xmz5K+Cn7Cl1rWzU/H7PZ2W1Wi0u3yspbg/vCRkADIIAzk9eK+3tA8PWHhnRrTTdNtktbO2jEccSdAAMCtHYMYp2MivoKGGp4de4tXuz9fy7KsLlkOTDx16t6t+rAIB2p1FFdR64UUUUAFFFFABRRRQAUUUUAFFFFABRRRQAUUUUAFFFFABRRRQAUUUUAFFFFABRRRQAUUUUAFFFFABRRRQAUUUUAFFFFABRRRQAUUUUAFFFFABRRRQAUUUUAFFFFABRRRQAUUUUAFFFFABRRRQAUUUUAFFFFABRRRQAUUUUAFFFFABRRRQAUUUUAFFFFABRRRQAUUUUAFFFFABRRRQAUUUUAFFFFABRRRQAUUUUAFFFFABRRRQAUUUUAFFFFABRRRQAUUUUAFFFFABRRRQAUUUUAFFFFABRRRQAUUUUAFFFFABRRRQAUUUUAFFFFABRRRQAUUUUAFFFFABRRRQAUUUUAFFFFABRRRQAUUUUAFNC4706igCtNbpcRtHIokjcEMp6EH2r59+LP7GXgXxdouqz+H9Hj0TxJMN8N1FPIIt+QSGjLFMHkHC55yOa+hxxzjGaTBJyOh7VlUpQqq01f+vwOPFYShjIezxEFJeaTt6X29T8kPiX8FfFvwjvTB4i0uSO3LYiv4Bvt5c5xhhwD14OD7Vw4H949+QPSv2N8WeDtL8caDeaNrFql3p90hjkjYdR7HsfevjP4v/sEXmkxrd/Duc30GT5mlX0qqyjBOY5DjJzgYP1zXz9fAVKb5qWq7dV8uv5n5JnHB9Wg3VwF5R6p7r07r8T4/2jA4PuDScYznHc57V3S/A74gT6n/AGevhDVmu1JUoYCFyOM7z8uPfOK+jPg5+wZe3s0GpfEOdYbdSJE0e1cMSR0Ekg4x1yFPpzXDToVartGLv5ppI+VwWRY/HVPZwpNLq2mkvv3PnH4Y/BXxZ8YNQFr4e015LdWHnahMNtvGMjPzHqfYZNfe3wy/Y68A+BY7O7vtNOt6zHGA9xeys8YfgkrHkJ1HBK5x9TXs3h7wzp/hXS4tP0u1js7WIYSOMdB/WtRUIxk19Bh8BCirz95+ey9EfsOU8M4TLUpTSnPu0mk/JdBsFtHbRJHEgjjQBVVRgKB0AFSFc96UHNLXpn2GwUUUUAFFFFABRRRQAUUUUAFFFFABRRRQAUUUUAFFFFABRRRQAUUUUAFFFFABRRRQAUUUUAFFFFABRRRQAUUUUAFFFFABRRRQAUUUUAFFFFABRRRQAUUUUAFFFFABRRRQAUUUUAFFFFABRRRQAUUUUAFFFFABRRRQAUUUUAFFFFABRRRQAUUUUAFFFFABRRRQAUUUUAFFFFABRRRQAUUUUAFFFFABRRRQAUUUUAFFFFABRRRQAUUUUAFFFFABRRRQAUUUUAFFFFABRRRQAUUUUAFFFFABRRRQAUUUUAFFFFABRRRQAUUUUAFFFFABRRRQAUUUUAFFFFABRRRQAUUUUAFFFFABRRRQAUUUUAFFFFABRRRQAUUUUAFFFFABUciFiOMjvUlFAEXl9OO3Pr+dOUEHpgY4p9FABRRRQAUUUUAFFFFABRRRQAUUUUAFFFFABRRRQAUUUUAFFFFABRRRQAUUUUAFFFFABRRRQAUUUUAFFFFABRRRQAUUUUAFFFFABRRRQAUUUUAFFFFABRRRQAUUUUAFFFFABRRRQAUUUUAFFFFABRRRQAUUUUAFFFFABRRRQAUUUUAFFFFABRRRQAUUUUAFFFFABRRRQAUUUUAFFFFABRRRQAUUUUAFFFFABRRRQAUUUUAFFFFABRRRQAUUUUAFFFFABRRRQAUUUUAFFFFABRRRQAUUUUAFFFFABRRRQAUUUUAFFFFABRRRQAUUUUAFFFFABRRRQAUUUUAFFFFABRRRQAUUUUAFFFFABRRRQAUUUUAFFFFABRRRQAUUUUAFFFFABRRRQAUUUUAFFFFABRRRQAUUUUAFFFFABRRRQAUUUUAFFFFABRRRQAUUUUAFFFFABRRRQAUUUUAFFFFABRRRQAUUUUAFFFFABRRRQAUUUUAFFFFABRRRQAUUUUAFFFFABRRRQAUUUUAFFFFABRRRQAUUUUAFFFFABRRRQAUUUUAFFFFABRRRQAUUUUAFFFFABRRRQAUUUUAFFFFABRRRQAUUUUAFFFFABRRRQAUUUUAFFFFABRRRQAUUUUAFFFFABRRRQAUUUUAFFFFABRRRQAUUUUAFFFFABRRRQAUUUUAFFFFABRRRQAUUUUAFFFFABRRRQAUUUUAFFFFABRRRQAUUUUAFFFFABRRRQAUUUUAFFFFABRRRQAUUUUAFFFFABRRRQAUUUUAFFFFABRRRQAUUUUAFFFFABRRRQAUUUUAFFFFABRRRQAUUUUAFFFFABRRRQAUUUUAFFFFABRRRQAUUUUAFFFFABRRRQAUUUUAFFFFABRRRQAUUUUAFFFFABRRRQAUUUUAFFFFABRRRQAUUUUAFFFFABRRRQAUUUUAFFFFABRRRQAUUUUAFFFFABRRRQAUUUUAFFFFABRRRQAUUUUAFFFFABRRRQAUUUUAFFFFABRRRQAUUUUAFFFFABRRRQAUUUUAFFFFABRRRQAUUUUAFFFFABRRRQAUUUUAFFFFABRRRQAUUUUAFFFFABRRRQAUUUUAFFFFABRRRQAUUUUAFFFFAH//Z;" vertex="1" parent="1">
          <mxGeometry x="566.37" y="75.5" width="107.27" height="43" as="geometry" />
        </mxCell>
        <mxCell id="TDqP3z-H94sPRknVNPj9-34" style="edgeStyle=orthogonalEdgeStyle;rounded=0;orthogonalLoop=1;jettySize=auto;html=1;entryX=1;entryY=0.5;entryDx=0;entryDy=0;" edge="1" parent="1" source="TDqP3z-H94sPRknVNPj9-7" target="TDqP3z-H94sPRknVNPj9-6">
          <mxGeometry relative="1" as="geometry">
            <Array as="points">
              <mxPoint x="694" y="243" />
              <mxPoint x="694" y="97" />
            </Array>
          </mxGeometry>
        </mxCell>
        <mxCell id="TDqP3z-H94sPRknVNPj9-36" style="edgeStyle=orthogonalEdgeStyle;rounded=0;orthogonalLoop=1;jettySize=auto;html=1;entryX=1;entryY=0.75;entryDx=0;entryDy=0;" edge="1" parent="1" source="TDqP3z-H94sPRknVNPj9-7" target="TDqP3z-H94sPRknVNPj9-4">
          <mxGeometry relative="1" as="geometry">
            <Array as="points">
              <mxPoint x="690" y="256" />
              <mxPoint x="690" y="256" />
            </Array>
          </mxGeometry>
        </mxCell>
        <mxCell id="TDqP3z-H94sPRknVNPj9-7" value="" style="aspect=fixed;html=1;points=[];align=center;image;fontSize=12;image=img/lib/azure2/general/Files.svg;" vertex="1" parent="1">
          <mxGeometry x="700" y="220" width="41.14" height="45" as="geometry" />
        </mxCell>
        <mxCell id="TDqP3z-H94sPRknVNPj9-8" value="" style="sketch=0;aspect=fixed;html=1;points=[];align=center;image;fontSize=12;image=img/lib/mscae/VM_Linux_Non_Azure.svg;" vertex="1" parent="1">
          <mxGeometry x="390" y="230" width="54.35" height="50" as="geometry" />
        </mxCell>
        <mxCell id="TDqP3z-H94sPRknVNPj9-27" value="" style="endArrow=classic;startArrow=classic;html=1;rounded=0;entryX=0.395;entryY=0.395;entryDx=0;entryDy=0;entryPerimeter=0;" edge="1" parent="1">
          <mxGeometry width="50" height="50" relative="1" as="geometry">
            <mxPoint x="592" y="197" as="sourcePoint" />
            <mxPoint x="591.8499999999999" y="126.85000000000002" as="targetPoint" />
            <Array as="points" />
          </mxGeometry>
        </mxCell>
        <mxCell id="TDqP3z-H94sPRknVNPj9-29" value="" style="endArrow=classic;startArrow=classic;html=1;rounded=0;entryX=0.395;entryY=0.395;entryDx=0;entryDy=0;entryPerimeter=0;" edge="1" parent="1">
          <mxGeometry width="50" height="50" relative="1" as="geometry">
            <mxPoint x="590.15" y="350.15" as="sourcePoint" />
            <mxPoint x="589.9999999999999" y="280" as="targetPoint" />
            <Array as="points" />
          </mxGeometry>
        </mxCell>
        <mxCell id="TDqP3z-H94sPRknVNPj9-32" style="edgeStyle=orthogonalEdgeStyle;rounded=0;orthogonalLoop=1;jettySize=auto;html=1;" edge="1" parent="1">
          <mxGeometry relative="1" as="geometry">
            <mxPoint x="340" y="347" as="sourcePoint" />
            <mxPoint x="239" y="347" as="targetPoint" />
            <Array as="points">
              <mxPoint x="295" y="347" />
            </Array>
          </mxGeometry>
        </mxCell>
        <mxCell id="TDqP3z-H94sPRknVNPj9-37" value="HTTP Request" style="text;strokeColor=none;align=center;fillColor=none;html=1;verticalAlign=middle;whiteSpace=wrap;rounded=0;fontStyle=1" vertex="1" parent="1">
          <mxGeometry x="253" y="280" width="60" height="30" as="geometry" />
        </mxCell>
        <mxCell id="TDqP3z-H94sPRknVNPj9-38" value="HTTP Response" style="text;strokeColor=none;align=center;fillColor=none;html=1;verticalAlign=middle;whiteSpace=wrap;rounded=0;fontStyle=1" vertex="1" parent="1">
          <mxGeometry x="253" y="360" width="60" height="30" as="geometry" />
        </mxCell>
        <mxCell id="TDqP3z-H94sPRknVNPj9-40" value="&lt;b&gt;Where is&lt;br&gt;www.foobar.com ?&lt;/b&gt;" style="text;strokeColor=none;align=center;fillColor=none;html=1;verticalAlign=middle;whiteSpace=wrap;rounded=0;" vertex="1" parent="1">
          <mxGeometry x="218" y="190" width="130" height="30" as="geometry" />
        </mxCell>
        <mxCell id="TDqP3z-H94sPRknVNPj9-41" value="&lt;b&gt;www.foobar.com is at&lt;br&gt;8.8.8.8&lt;/b&gt;" style="text;strokeColor=none;align=center;fillColor=none;html=1;verticalAlign=middle;whiteSpace=wrap;rounded=0;" vertex="1" parent="1">
          <mxGeometry x="60" y="182.5" width="130" height="30" as="geometry" />
        </mxCell>
        <mxCell id="TDqP3z-H94sPRknVNPj9-42" value="&lt;b&gt;Web server&lt;/b&gt;" style="text;strokeColor=none;align=center;fillColor=none;html=1;verticalAlign=middle;whiteSpace=wrap;rounded=0;" vertex="1" parent="1">
          <mxGeometry x="613.64" y="60" width="76.36" height="30" as="geometry" />
        </mxCell>
        <mxCell id="TDqP3z-H94sPRknVNPj9-43" value="&lt;b&gt;App Files&amp;nbsp;&lt;/b&gt;" style="text;strokeColor=none;align=center;fillColor=none;html=1;verticalAlign=middle;whiteSpace=wrap;rounded=0;" vertex="1" parent="1">
          <mxGeometry x="682.39" y="272.5" width="76.36" height="30" as="geometry" />
        </mxCell>
        <mxCell id="TDqP3z-H94sPRknVNPj9-44" value="&lt;b&gt;App server&lt;/b&gt;" style="text;strokeColor=none;align=center;fillColor=none;html=1;verticalAlign=middle;whiteSpace=wrap;rounded=0;" vertex="1" parent="1">
          <mxGeometry x="566.37" y="190" width="76.36" height="30" as="geometry" />
        </mxCell>
        <mxCell id="TDqP3z-H94sPRknVNPj9-45" value="&lt;b&gt;MySQL DB Server&lt;/b&gt;" style="text;strokeColor=none;align=center;fillColor=none;html=1;verticalAlign=middle;whiteSpace=wrap;rounded=0;" vertex="1" parent="1">
          <mxGeometry x="636.37" y="380" width="76.36" height="30" as="geometry" />
        </mxCell>
      </root>
    </mxGraphModel>
  </diagram>
</mxfile>
